<svg height="800" width="800" xmlns="http://www.w3.org/2000/svg" viewBox="0 0 503.466 503.466" xml:space="preserve">
  <path style="fill:#ffd0a1" d="M19.08 404.333c4.267-132.267 39.253-204.8 63.147-238.933 0 0 13.653-17.067 22.187-25.6h256s85.333 68.267 85.333 290.133c0 34.133-67.413 68.267-213.333 68.267S19.08 464.066 19.08 429.933v-25.6zM386.013 28.866c29.013 29.013-25.6 76.8-25.6 76.8h-256s-68.267-51.2-34.133-85.333S130.013 37.4 164.146 37.4c51.2 0 42.667-34.133 85.333-34.133S292.146 37.4 317.746 37.4s45.227-31.574 68.267-8.534z" transform="translate(3 1)"/>
  <path style="fill:#ae938d" d="M360.413 105.666c9.387 0 17.067 7.68 17.067 17.067S369.8 139.8 360.413 139.8h-256c-9.387 0-17.067-7.68-17.067-17.067s7.68-17.067 17.067-17.067h256z" transform="translate(3 1)"/>
  <path style="fill:#e4f2de" d="M471.346 250.733c5.12 0 8.533 4.267 8.533 8.533s-3.413 8.533-8.533 8.533-8.533-4.267-8.533-8.533 3.413-8.533 8.533-8.533zM351.88 242.2c5.12 0 8.533 4.267 8.533 8.533 0 4.267-3.413 8.533-8.533 8.533-5.12 0-8.533-4.267-8.533-8.533 0-2.56.853-4.267 2.56-5.973 1.706-1.707 3.413-2.56 5.973-2.56z" transform="translate(3 1)"/>
  <path style="fill:#51565f" d="M235.413 503.466c-160.427 0-217.6-39.253-217.6-72.533V407.04c-.853-.853-.853-2.56 0-3.413 4.267-133.973 40.96-207.36 64-239.787 1.707-1.707 4.267-2.56 5.973-.853 1.707 1.707 2.56 4.267.853 5.973-22.187 31.573-58.027 103.253-62.293 234.667 5.12 4.267 19.627 16.213 39.253 23.04 2.56.853 3.413 3.413 2.56 5.12-.853 1.707-3.413 3.413-5.12 2.56-16.213-5.12-29.013-14.507-36.693-20.48v16.213c0 30.72 65.707 64 209.067 64s209.067-33.28 209.067-64v-17.067c-6.827 5.973-19.627 15.36-36.693 20.48-2.56.853-4.267-.853-5.12-2.56-.853-2.56.853-4.267 2.56-5.12 22.187-7.68 36.693-21.333 39.253-23.893-5.973-170.667-64.853-240.64-80.213-255.147-7.68 12.8-29.867 52.907-12.8 92.16.853 0 2.56-.853 4.267-.853 6.827 0 12.8 5.973 12.8 12.8s-5.973 12.8-12.8 12.8-12.8-5.973-12.8-12.8c0-2.56.853-5.12 1.707-6.827-19.627-41.813 1.707-83.627 11.093-99.84h-71.68l6.827 29.013c.853 2.56-.853 4.267-3.413 5.12-2.56.853-4.267-.853-5.12-3.413l-7.68-30.72h-26.453v12.8c0 2.56-1.707 4.267-4.267 4.267s-4.267-1.707-4.267-4.267v-12.8h-87.04c-2.56 5.973-6.827 21.333-6.827 46.933 0 2.56-1.707 4.267-4.267 4.267s-4.267-1.707-4.267-4.267c0-23.04 4.267-39.253 6.827-46.933h-36.693c-11.947 0-21.333-9.387-21.333-21.333 0-8.533 5.12-15.36 11.947-18.773-11.947-10.24-36.693-34.133-38.4-58.88C58.774 34.986 62.187 25.6 70.72 17.92c23.04-23.04 44.373-10.24 62.293 1.707 11.093 6.827 22.187 14.507 34.133 14.507 24.747 0 34.133-8.533 44.373-17.067C220.907 8.533 230.293 0 252.48 0c25.6 0 37.547 11.947 46.933 21.333 6.827 6.827 11.947 12.8 21.333 12.8 8.533 0 17.067-4.267 24.747-8.533 13.653-6.827 29.867-15.36 46.08.853 6.827 6.827 10.24 15.36 9.387 24.747-.853 20.48-17.92 40.96-28.16 51.2 94.72 7.68 104.107 123.733 104.96 145.067 5.12 1.707 8.533 6.827 8.533 11.947 0 6.827-5.973 12.8-12.8 12.8s-12.8-5.973-12.8-12.8c0-5.12 3.413-10.24 8.533-11.947-.853-22.187-9.386-137.387-106.666-137.387h-256c-6.827 0-12.8 5.973-12.8 12.8s5.973 12.8 12.8 12.8h256.853c.853 0 1.707 0 1.707.853 3.413 2.56 87.04 71.68 87.04 293.547.853 34.133-56.32 73.386-216.747 73.386zM474.346 256c-2.56 0-4.267 1.707-4.267 4.267s1.707 4.267 4.267 4.267 4.267-1.707 4.267-4.267-1.707-4.267-4.267-4.267zm-122.879-7.68c-.853.853-.853 1.707-.853 3.413 0 2.56 1.707 4.267 4.267 4.267s4.267-1.707 4.267-4.267c-.002-3.413-5.122-5.12-7.681-3.413.853 0 .853 0 0 0zM109.12 102.4h252.587c5.973-5.12 30.72-29.867 31.573-51.2 0-6.827-2.56-12.8-6.827-17.92-11.947-11.947-20.48-7.68-35.84 0-9.387 4.267-17.92 9.387-29.013 9.387-12.8 0-20.48-7.68-27.307-15.36-9.387-9.387-18.773-18.773-40.96-18.773-18.773 0-26.453 6.827-34.987 14.507-10.24 9.387-21.333 19.627-50.347 19.627-14.507 0-26.453-7.68-39.253-15.36-18.773-11.947-33.28-21.333-52.053-2.56-5.973 5.973-8.533 12.8-8.533 21.333 1.707 23.892 34.133 51.199 40.96 56.319zm126.293 349.866c-67.413 0-119.467-8.533-120.32-8.533-2.56 0-4.267-2.56-3.413-5.12 0-2.56 2.56-4.267 5.12-3.413.853 0 52.053 8.533 118.613 8.533 2.56 0 4.267 1.707 4.267 4.267 0 2.56-1.707 4.266-4.267 4.266z"/>
</svg>
