<svg height="800" width="800" xmlns="http://www.w3.org/2000/svg" viewBox="0 0 503.467 503.467" xml:space="preserve">
  <path style="fill:#aab1ba" d="M365.08 240.493c11.947-6.827 16.213-22.187 9.387-34.133-3.413-5.973-8.533-9.387-13.653-11.093.853-5.973.853-11.947-2.56-17.92-6.827-11.947-22.187-16.213-34.133-9.387-11.947 6.827-16.213 22.187-9.387 34.133l-64 36.693-64-36.693c6.827-11.947 2.56-27.307-9.387-34.133-11.947-6.827-27.307-2.56-34.133 9.387-3.413 5.12-4.267 11.947-2.56 17.92-5.973 1.707-11.093 5.973-13.653 11.093-6.827 11.947-2.56 27.307 9.387 34.133 11.947 6.827 27.307 2.56 34.133-9.387l46.933 27.307v.853l-46.933 27.307c-6.827-11.947-22.187-16.213-34.133-9.387-11.947 6.827-16.213 22.187-9.387 34.133 3.413 5.973 8.533 9.387 13.653 11.093-.853 5.973-.853 11.947 2.56 17.92 6.827 11.947 22.187 16.213 34.133 9.387 11.947-6.827 16.213-22.187 9.387-34.133l64-36.693 64 36.693c-6.827 11.947-2.56 27.307 9.387 34.133 11.947 6.827 27.307 2.56 34.133-9.387 3.413-5.12 4.267-11.947 2.56-17.92 5.973-1.707 11.093-5.973 13.653-11.093 6.827-11.947 2.56-27.307-9.387-34.133-11.947-6.827-27.307-2.56-34.133 9.387l-47.787-27.307 47.787-27.307c6.827 11.094 22.187 15.361 34.133 8.534zm46.934-186.026v384L249.88 498.2 87.747 438.467v-384h324.267z" transform="translate(1 1)"/>
  <path style="fill:#e4f2de" d="M374.467 206.36c6.827 11.947 2.56 27.307-9.387 34.133-11.947 6.827-27.307 2.56-34.133-9.387l-47.787 27.307-33.28 19.627-64 36.693c6.827 11.947 2.56 27.307-9.387 34.133-11.947 6.827-27.307 2.56-34.133-9.387-3.413-5.12-4.267-11.947-2.56-17.92-5.973-1.707-11.093-5.973-13.653-11.093-6.827-11.947-2.56-27.307 9.387-34.133s27.307-2.56 34.133 9.387l46.933-27.307 34.133-19.627 64-36.693c-6.827-11.947-2.56-27.307 9.387-34.133 11.947-6.827 27.307-2.56 34.133 9.387 3.413 5.12 4.267 11.947 2.56 17.92 5.121 1.707 10.241 5.12 13.654 11.093" transform="translate(1 1)"/>
  <path style="fill:#e4f2de" d="M365.08 277.187c11.947 6.827 16.213 22.187 9.387 34.133-3.413 5.973-8.533 9.387-13.653 11.093.853 5.973.853 11.947-2.56 17.92-6.827 11.947-22.187 16.213-34.133 9.387-11.947-6.827-16.213-22.187-9.387-34.133l-64-36.693 33.28-19.627 47.787 27.307c5.973-11.947 21.333-16.214 33.279-9.387zm-115.2-37.547-34.133 19.627v-.853l-46.933-27.307c-6.827 11.947-22.187 16.213-34.133 9.387-11.947-6.827-16.213-22.187-9.387-34.133 3.413-5.973 8.533-9.387 13.653-11.093-.853-5.973-.853-11.947 2.56-17.92 6.827-11.947 22.187-16.213 34.133-9.387 11.947 6.827 16.213 22.187 9.387 34.133l64.853 37.546z" transform="translate(1 1)"/>
  <path style="fill:#ffd0a1" d="M463.214 3.267c18.773 0 34.133 15.36 34.133 34.133s-15.36 34.133-34.133 34.133c-12.8 0-23.893-6.827-29.013-17.067H66.414c-5.973 10.24-17.067 17.067-29.867 17.067-18.773 0-34.133-15.36-34.133-34.133S17.773 3.267 36.547 3.267c12.8 0 23.893 6.827 29.867 17.067H434.2c5.12-10.241 16.214-17.067 29.014-17.067" transform="translate(1 1)"/>
  <path style="fill:#51565f" d="M250.88 503.467h-1.707L87.04 443.733c-1.707-.853-2.56-2.56-2.56-4.267V89.6c0-2.56 1.707-4.267 4.267-4.267s4.267 1.707 4.267 4.267v347.307l157.867 58.027 157.867-58.027V55.467c0-2.56 1.707-4.267 4.267-4.267H435.2c1.707 0 2.56.853 3.413 1.707 5.12 9.387 15.36 15.36 25.6 15.36 16.213 0 29.867-13.653 29.867-29.867S480.427 8.533 464.214 8.533c-10.24 0-20.48 5.973-25.6 15.36-.853 1.707-2.56 1.707-3.413 1.707H67.414c-1.707 0-2.56-.853-3.413-1.707-5.12-9.387-15.36-15.36-25.6-15.36-16.214 0-29.867 13.654-29.867 29.867S22.187 68.267 38.4 68.267c10.24 0 20.48-5.973 25.6-15.36.853-1.707 2.56-1.707 3.413-1.707H378.88c2.56 0 4.267 1.707 4.267 4.267 0 2.56-1.707 4.267-4.267 4.267H69.973C63.147 69.974 51.2 76.8 38.4 76.8 17.067 76.8 0 59.733 0 38.4S17.067 0 38.4 0c12.8 0 24.747 6.827 31.573 17.067h363.52C440.32 6.827 452.267 0 465.067 0c21.333 0 38.4 17.067 38.4 38.4s-17.067 38.4-38.4 38.4c-12.8 0-24.747-5.973-31.573-17.067h-15.36v379.733c0 1.707-.853 3.413-2.56 4.267L253.44 503.467h-2.56zM337.067 358.4c-5.12 0-10.24-1.707-14.507-4.267-12.8-7.68-17.92-23.04-12.8-36.693l-58.88-34.133L192 317.44c2.56 5.973 2.56 11.947.853 18.773-1.707 7.68-6.827 13.653-13.653 17.92-13.653 8.533-32.427 3.413-40.107-11.093-3.413-5.12-4.267-11.093-3.413-17.067-5.12-2.56-10.24-6.827-12.8-11.947-8.533-13.653-3.413-32.427 11.093-40.107 6.827-4.267 14.507-5.12 22.187-2.56 5.973 1.707 11.947 5.12 15.36 10.24l37.547-21.333-37.547-21.333c-4.267 5.12-9.387 8.533-15.36 10.24-7.68 1.707-15.36.853-22.187-2.56-13.653-8.533-18.773-26.453-11.093-40.107 3.413-5.12 7.68-9.387 12.8-11.947-.853-5.973.853-11.947 3.413-17.067 4.267-6.827 10.24-11.947 17.92-13.653s15.36-.853 22.187 2.56c6.827 4.267 11.947 10.24 13.653 17.92 1.707 5.973.853 12.8-.853 18.773l58.88 34.133 58.88-34.133c-5.12-13.653 0-29.013 12.8-36.693 13.653-8.533 32.427-3.413 40.107 11.093 3.413 5.12 4.267 11.093 3.413 17.067 5.12 2.56 10.24 6.827 12.8 11.947 8.533 13.653 3.413 32.427-11.093 40.107-12.8 7.68-29.013 4.267-37.547-6.827l-37.547 21.333 37.547 21.333c8.533-11.093 24.747-14.507 37.547-6.827 13.653 8.533 18.773 26.453 11.093 40.107-3.413 5.12-7.68 9.387-12.8 11.947.853 5.973-.853 11.947-3.413 17.067-4.267 6.827-10.24 11.947-17.92 13.653l-7.68.001zm-77.653-79.36 58.027 33.28c.853.853 1.707 1.707 1.707 2.56s0 2.56-.853 3.413c-5.973 10.24-2.56 23.04 7.68 28.16 5.12 2.56 10.24 3.413 16.213 1.707 5.12-1.707 10.24-5.12 12.8-9.387s3.413-9.387 2.56-14.507c-.853-2.56.853-4.267 2.56-5.12 5.12-1.707 9.387-5.12 11.947-9.387 5.973-10.24 2.56-23.04-7.68-28.16-10.24-5.973-23.04-2.56-28.16 7.68-.853.853-1.707 1.707-2.56 1.707s-2.56 0-3.413-.853l-45.227-26.453-25.601 15.36zm-111.787 0c-3.413 0-6.827.853-10.24 2.56-10.24 5.973-13.653 18.773-7.68 28.16 2.56 4.267 6.827 7.68 11.947 9.387 1.707.853 3.413 2.56 2.56 5.12-.853 5.12 0 10.24 2.56 14.507 5.973 10.24 18.773 13.653 28.16 7.68 5.12-2.56 8.533-7.68 9.387-12.8 1.707-5.12.853-11.093-1.707-16.213-.853-.853-.853-2.56-.853-3.413 0-.853.853-1.707 1.707-2.56l64-36.693 33.28-19.627 46.933-27.307c1.707-.853 4.267-.853 5.973 1.707 5.973 10.24 18.773 13.653 28.16 7.68 10.24-5.973 13.653-18.773 7.68-28.16-2.56-4.267-6.827-7.68-11.947-9.387-1.707-.853-3.413-2.56-2.56-5.12.853-5.12 0-10.24-2.56-14.507-5.973-10.24-18.773-13.653-28.16-7.68-10.24 5.973-13.653 18.773-7.68 28.16.853.853.853 2.56.853 3.413 0 .853-.853 1.707-1.707 2.56l-64 36.693-81.067 46.933c-.853.853-2.56.853-3.413 0-.853 0-1.707-.853-2.56-1.707-2.56-5.12-7.68-8.533-12.8-9.387l-4.266.001zm22.187-51.2c.853 0 1.707 0 2.56.853l45.227 25.6 25.6-14.507-58.027-33.28c-.853-.853-1.707-1.707-1.707-2.56v-3.413c2.56-5.12 3.413-10.24 1.707-16.213-1.707-5.12-5.12-10.24-9.387-12.8-5.12-2.56-10.24-3.413-16.213-1.707-5.12 1.707-10.24 5.12-12.8 9.387-2.56 4.267-3.413 9.387-2.56 14.507.853 2.56-.853 4.267-2.56 5.12-5.12 1.707-9.387 5.12-11.947 9.387-5.973 10.24-2.56 23.04 7.68 28.16 5.12 2.56 10.24 3.413 16.213 1.707 5.12-1.707 10.24-5.12 12.8-9.387.853-.853 1.707-1.707 2.56-1.707 0 .853.854.853.854.853z"/>
</svg>
