<svg height="800" width="800" xmlns="http://www.w3.org/2000/svg" viewBox="0 0 503.467 503.467" xml:space="preserve">
  <path style="fill:#aab1ba" d="M400.067 223.427c11.947-6.827 16.213-22.187 9.387-34.133-3.413-5.973-8.533-9.387-13.653-11.093.853-5.973.853-11.947-2.56-17.92-6.827-11.947-22.187-16.213-34.133-9.387-11.947 6.827-16.213 22.187-9.387 34.133l-64 36.693-64-36.693c6.827-11.947 2.56-27.307-9.387-34.133-11.947-6.827-27.307-2.56-34.133 9.387-3.413 5.12-4.267 11.947-2.56 17.92-5.973 1.707-11.093 5.973-14.507 11.093-6.827 11.947-2.56 27.307 9.387 34.133 11.947 6.827 27.307 2.56 34.133-9.387l46.933 27.307v.853l-46.933 27.307c-6.827-11.947-22.187-16.213-34.133-9.387-11.947 6.827-16.213 22.187-9.387 34.133 3.413 5.973 8.533 9.387 14.507 11.093-.853 5.973-.853 11.947 2.56 17.92 6.827 11.947 22.187 16.213 34.133 9.387s16.213-22.187 9.387-34.133l64-36.693 64 36.693c-6.827 11.947-2.56 27.307 9.387 34.133 11.947 6.827 27.307 2.56 34.133-9.387 3.413-5.12 4.267-11.947 2.56-17.92 5.973-1.707 11.093-5.973 13.653-11.093 6.827-11.947 2.56-27.307-9.387-34.133-11.947-6.827-27.307-2.56-34.133 9.387L318.147 242.2l47.787-27.307c6.826 11.094 22.186 15.36 34.133 8.534zM54.467 395.8H498.2V88.6H54.467v307.2z" transform="translate(1 1)"/>
  <path style="fill:#e4f2de" d="M409.453 189.293c6.827 11.947 2.56 27.307-9.387 34.133-11.947 6.827-27.307 2.56-34.133-9.387l-47.787 27.307-33.28 19.627-64 36.693c6.827 11.947 2.56 27.307-9.387 34.133-11.947 6.827-27.307 2.56-34.133-9.387-3.413-5.12-4.267-11.947-2.56-17.92-5.973-1.707-11.093-5.973-13.653-11.093-6.827-11.947-2.56-27.307 9.387-34.133 11.947-6.827 27.307-2.56 34.133 9.387l46.933-27.307 34.133-19.627 64-36.693c-6.827-11.947-2.56-27.307 9.387-34.133 11.947-6.827 27.307-2.56 34.133 9.387 3.413 5.12 4.267 11.947 2.56 17.92 5.121 1.707 10.241 5.12 13.654 11.093" transform="translate(1 1)"/>
  <path style="fill:#e4f2de" d="M400.067 260.12c11.947 6.827 16.213 22.187 9.387 34.133-3.413 5.973-8.533 9.387-13.653 11.093.853 5.973.853 11.947-2.56 17.92-6.827 11.947-22.187 16.213-34.133 9.387s-16.213-22.187-9.387-34.133l-64-36.693L319 242.2l47.787 27.307c5.973-11.947 21.333-16.214 33.28-9.387zm-115.2-37.547L250.733 242.2v-.853L203.8 214.04c-6.827 11.947-22.187 16.213-34.133 9.387-11.947-6.827-16.213-22.187-9.387-34.133 3.413-5.973 8.533-9.387 13.653-11.093-1.707-5.973-.853-11.947 2.56-17.92 6.827-11.947 22.187-16.213 34.133-9.387 11.947 6.827 16.213 22.187 9.387 34.133l64.854 37.546z" transform="translate(1 1)"/>
  <path style="fill:#ffd0a1" d="M37.4 3.267c18.773 0 34.133 15.36 34.133 34.133 0 12.8-6.827 23.893-17.067 29.867V499.053l-34.133-17.067V68.12C10.093 62.147 3.267 51.053 3.267 38.253c0-19.626 15.36-34.986 34.133-34.986" transform="translate(1 1)"/>
  <path style="fill:#51565f" d="M55.467 503.467c-2.56 0-4.267-1.707-4.267-4.267V124.587c0-2.56 1.707-4.267 4.267-4.267 2.56 0 4.267 1.707 4.267 4.267V499.2c-.001 2.56-1.707 4.267-4.267 4.267zM21.333 486.4c-2.56 0-4.267-1.707-4.267-4.267V69.973C6.827 63.147 0 51.2 0 38.4 0 17.067 17.067 0 38.4 0s38.4 17.067 38.4 38.4c0 12.8-6.827 24.747-17.067 31.573v15.36H499.2c2.56 0 4.267 1.707 4.267 4.267v307.2c0 2.56-1.707 4.267-4.267 4.267H89.6c-2.56 0-4.267-1.707-4.267-4.267s1.707-4.267 4.267-4.267h405.333V93.867H55.467c-2.56 0-4.267-1.707-4.267-4.267V67.413c0-1.707.853-2.56 1.707-3.413 9.387-5.12 15.36-15.36 15.36-25.6 0-16.213-13.653-29.867-29.867-29.867S8.533 22.187 8.533 38.4c0 10.24 5.973 20.48 15.36 25.6 1.707.853 1.707 2.56 1.707 3.413v414.72c0 2.56-1.707 4.267-4.267 4.267zm350.72-145.067c-5.12 0-10.24-1.707-14.507-4.267-12.8-7.68-17.92-23.04-12.8-36.693l-58.88-34.133-58.88 34.133c5.12 13.653 0 29.013-12.8 36.693-13.653 8.533-32.427 3.413-40.107-11.093-3.413-5.12-4.267-11.093-3.413-17.067-5.12-2.56-10.24-6.827-12.8-11.947-4.267-6.827-5.12-14.507-2.56-22.187 1.707-7.68 6.827-13.653 13.653-17.92 6.827-4.267 14.507-5.12 22.187-2.56 5.973 1.707 11.947 5.12 15.36 10.24l37.547-21.333-37.547-21.333c-4.267 5.12-9.387 8.533-15.36 10.24-7.68 1.707-15.36.853-22.187-2.56-13.653-8.533-18.773-26.453-11.093-40.107 3.413-5.12 7.68-9.387 12.8-11.947-.853-5.973.853-11.947 3.413-17.067 4.267-6.827 10.24-11.947 17.92-13.653 7.68-1.707 15.36-.853 22.187 2.56 12.8 7.68 17.92 23.04 12.8 36.693l58.88 34.133 58.88-34.133c-5.12-13.653 0-29.013 12.8-36.693 6.827-4.267 14.507-5.12 22.187-2.56 7.68 1.707 13.653 6.827 17.92 13.653 3.413 5.12 4.267 11.093 3.413 17.067 5.12 2.56 10.24 6.827 12.8 11.947 8.533 13.653 3.413 32.427-11.093 40.107-12.8 7.68-29.013 4.267-37.547-6.827l-37.547 21.333 37.547 21.333c8.533-11.093 24.747-14.507 37.547-6.827 13.653 8.533 18.773 26.453 11.093 40.107-3.413 5.12-7.68 9.387-12.8 11.947.853 5.973-.853 11.947-3.413 17.067-4.267 6.827-10.24 11.947-17.92 13.653l-7.68.001zm-77.653-79.36 58.027 33.28c1.707.853 2.56 3.413 1.707 5.973-5.973 10.24-2.56 23.04 7.68 28.16 5.12 2.56 10.24 3.413 16.213 1.707 5.12-1.707 10.24-5.12 12.8-9.387 2.56-4.267 3.413-9.387 2.56-14.507-.853-2.56.853-4.267 2.56-5.12 5.12-1.707 9.387-5.12 11.947-9.387 5.973-10.24 2.56-23.04-7.68-28.16-10.24-5.973-23.04-2.56-28.16 7.68-.853.853-1.707 1.707-2.56 1.707s-2.56 0-3.413-.853l-45.227-26.453-26.454 15.36zm-111.787 0c-3.413 0-6.827.853-10.24 2.56-5.12 2.56-8.533 7.68-9.387 12.8-1.707 5.12-.853 11.093 1.707 16.213 2.56 4.267 6.827 7.68 11.947 9.387 1.707.853 3.413 2.56 2.56 5.12-.853 5.12 0 10.24 2.56 14.507 5.973 10.24 18.773 13.653 28.16 7.68 10.24-5.973 13.653-18.773 7.68-28.16-.853-.853-.853-2.56 0-3.413 0-.853.853-1.707 1.707-2.56l64-36.693 33.28-19.627 46.933-27.307c1.707-.853 4.267-.853 5.973 1.707 5.973 10.24 18.773 13.653 28.16 7.68 10.24-5.973 13.653-18.773 7.68-28.16-2.56-4.267-6.827-7.68-11.947-9.387-1.707-.853-3.413-2.56-2.56-5.12.853-5.12 0-10.24-2.56-14.507-2.56-5.12-7.68-8.533-12.8-9.387-5.12-1.707-11.093-.853-16.213 1.707-10.24 5.973-13.653 18.773-7.68 28.16.853 1.707.853 4.267-1.707 5.973l-64 36.693-81.066 46.935c-.853.853-2.56.853-3.413.853-.853 0-1.707-.853-2.56-1.707-2.56-5.12-7.68-8.533-12.8-9.387.853-2.56-.854-2.56-3.414-2.56zm22.187-51.2c.853 0 1.707 0 2.56.853l45.227 25.6 25.6-14.507-58.027-33.28c-1.707-.853-2.56-3.413-1.707-5.973 5.973-10.24 2.56-23.04-7.68-28.16-5.12-2.56-10.24-3.413-16.213-1.707-5.12 1.707-10.24 5.12-12.8 9.387s-3.413 9.387-2.56 14.507c.853 2.56-.853 4.267-2.56 5.12-5.12 1.707-9.387 5.12-11.947 9.387-5.973 10.24-2.56 23.04 7.68 28.16 5.12 2.56 10.24 3.413 16.213 1.707 5.12-1.707 10.24-5.12 12.8-9.387.853-.853 1.707-1.707 2.56-1.707h.854z"/>
</svg>
