<svg height="800" width="800" xmlns="http://www.w3.org/2000/svg" viewBox="0 0 500.525 500.525" xml:space="preserve">
  <path style="fill:#ffd0a1" d="M309.044 248.825c12.8 12.8 12.8 34.1 0 46.9l-141.6 141.7c12.8-12.8 12.8-34.1 0-47.8l-82.8-82.8 141.7-141.6 82.7 83.6z" transform="translate(1 1)"/>
  <path style="fill:#e4f2de" d="m462.344 94.125-41 41.8c-6 6-17.9 17.9-17.9 41.8v35.8c0 23.9-10.2 46.1-23.9 58.9l-212.4 212.5c-12.8 12.8-34.1 12.8-46.9 0l-106.7-106.6c-12.8-12.8-12.8-34.1 0-47.8l212.5-212.5c12.8-12.8 35.8-23.9 58.9-23.9h35c23.9 0 35.8-11.9 41.8-17.9l41.8-41 58.8 58.9zm-295.2 343.9 141.7-141.7c12.8-12.8 12.8-34.1 0-46.9l-82.8-82.8-141.7 141.7 82.8 82.8c12.8 12.8 12.8 33.2 0 46.9z" transform="translate(1 1)"/>
  <path style="fill:#ae938d" d="m403.444 36.125-6-6c-3.4-3.4-3.4-8.5 0-11.9l12-12c3.4-3.4 8.5-3.4 11.9 0l70.9 70.8c3.4 3.4 3.4 8.5 0 11.9l-12 12c-3.4 3.4-8.5 3.4-11.9 0l-6-6-58.9-58.8zM49.844 342.525l34.1-34.1h.9l82.8 82.8c12.8 12.8 12.8 34.1 0 46.9-13.7 13.7-34.1 13.7-47.8 0l-70.8-70.9c-6.8-6.8-7.7-16.2 0-23.9.8 0 .8 0 .8-.8z" transform="translate(1 1)"/>
  <path style="fill:#51565f" d="m496.644 74.625-70.8-70.8c-5.1-5.1-12.8-5.1-17.9 0l-11.9 11.9c-1.7 1.7-3.4 5.1-3.4 8.5s.9 6 3.4 8.5l41 41.8c1.7 1.7 4.3 1.7 6 0s1.7-4.3 0-6l-41-41.8c-.9-.9-.9-1.7-.9-2.6s0-1.7.9-2.6l11.9-11.9c1.7-1.7 4.3-1.7 6 0l70.8 70.8c1.7 1.7 1.7 4.3 0 6l-11.9 11.9c-1.7 1.7-4.3 1.7-6 0l-6-6c-.9 0-2.6-.9-3.4-.9-1.7 0-2.6 0-3.4.9l-41.8 41.8c-6 6-18.8 18.8-18.8 44.4v35.8c0 20.5-8.5 42.7-22.2 56.3l-212.5 212.8c-11.1 11.1-29.9 11.1-41 0l-106.7-106.7c-5.1-5.1-8.5-12.8-8.5-20.5s3.4-15.4 8.5-20.5l212.5-212.5c13.7-13.7 35.8-22.2 56.3-22.2h35.8c25.6 0 38.4-12.8 44.4-18.8l17.9-17.9c1.7-1.7 1.7-4.3 0-6s-4.3-1.7-6 0l-17.9 17.9c-6 5.1-16.2 16.2-38.4 16.2h-35.8c-23 0-46.9 9.4-62.3 24.7l-212.4 212.7c-6.9 6.8-11.1 16.2-11.1 26.4s4.3 19.6 11.1 26.5l106.7 106.7c6.8 7.7 17.1 11.1 26.5 11.1s19.6-4.3 28.2-11.1l212.5-212.5c15.4-15.4 24.7-39.3 24.7-62.3v-35.8c0-22.2 10.2-32.4 16.2-38.4l38.4-38.4 2.6 2.6c5.1 5.1 12.8 5.1 17.9 0l11.9-11.9c5-5.3 5-13-.1-18.1z"/>
  <path style="fill:#51565f" d="M363.544 190.725v35.8c0 9.4-10.2 20.5-10.2 20.5-1.7 1.7-1.7 4.3 0 6 .9.9 2.6.9 3.4.9 1.7 0 2.6-.9 2.6-.9s12.8-12.8 12.8-26.5v-35.8c0-2.6-1.7-4.3-4.3-4.3-2.6 0-4.3 1.7-4.3 4.3zM61.444 344.325c2.6 0 6 1.7 8.5 4.3l64.9 64.9c1.7 1.7 4.3 1.7 6 0s1.7-4.3 0-6l-64.9-64.9c-3.4-4.3-9.4-6.8-14.5-6.8s-10.2 2.6-14.5 6.8c-4.3 4.3-6.8 9.4-6.8 14.5s2.6 10.2 6.8 14.5l70.8 70.8c6.8 6.8 16.2 11.1 26.5 11.1 9.4 0 18.6-4.3 25.5-10.2l141.7-141.7c14.5-15.4 17.5-40.3 3-54.8l-82.8-82.8c-1.7-1.7-6.3-.7-8 1l-141.7 141.7c-1.7 1.7-1.7 4.3 0 6l82.8 82.8c5.1 5.1 8.5 12.8 8.5 20.5s-3.4 15.4-8.5 20.5c-6 5.1-12.8 8.5-20.5 8.5s-14.5-2.6-20.5-8.5l-70.8-70.8c-1.7-1.7-4.3-5.1-4.3-8.5 0-2.6 1.7-6 4.3-8.5 2.5-2.7 5.1-4.4 8.5-4.4zm109.2 43.5-79.4-79.4 136.5-136.5 79.4 79.4c11.1 11.1 11.1 29.9 0 41l-125.4 125.4v-3.4c0-10.3-4.2-19.7-11.1-26.5z"/>
</svg>
