<svg height="800" width="800" xmlns="http://www.w3.org/2000/svg" viewBox="0 0 504.32 504.32" xml:space="preserve">
  <path style="fill:#ae938d" d="M464.067 464.493V276.76H37.4v187.733h426.667zm34.133-409.6v409.6c0 18.773-15.36 34.133-34.133 34.133H37.4c-18.773 0-34.133-15.36-34.133-34.133V242.627H464.066v-179.2c0-4.267-3.413-8.533-8.533-8.533H293.4V20.76h170.667c18.773 0 34.133 15.36 34.133 34.133zM208.067 20.76v34.133H45.933c-4.267 0-8.533 4.267-8.533 8.533v179.2H3.267V54.893c0-18.773 15.36-34.133 34.133-34.133h170.667z" transform="translate(1 1)"/>
  <path style="fill:#aab1ba" d="M310.467 174.36c0-9.387-7.68-17.067-17.067-17.067s-17.067 7.68-17.067 17.067 7.68 17.067 17.067 17.067 17.067-7.68 17.067-17.067m-187.734-51.2c0-9.387-7.68-17.067-17.067-17.067S88.6 113.773 88.6 123.16s7.68 17.067 17.067 17.067H71.533v34.133h8.533s8.533 42.667 25.6 68.267H37.4v-179.2c0-4.267 4.267-8.533 8.533-8.533h162.133c0 10.24 6.827 17.067 17.067 17.067h51.2c10.24 0 17.067-6.827 17.067-17.067h162.133c5.12 0 8.533 4.267 8.533 8.533v179.2h-34.133v-34.133H447V174.36h-90.453v-.853l73.387-41.813-17.067-29.867-74.24 42.667 17.067 29.867H344.6v34.133h-17.067v34.133H293.4c0-9.387-7.68-17.067-17.067-17.067s-17.067 7.68-17.067 17.067H191c17.067-25.6 25.6-68.267 25.6-68.267h8.533v-34.133H191c0-9.387-7.68-17.067-17.067-17.067s-17.067 7.68-17.067 17.067h-51.2c9.387 0 17.067-7.68 17.067-17.067m119.467 0c0 9.387 7.68 17.067 17.067 17.067s17.067-7.68 17.067-17.067-7.68-17.067-17.067-17.067-17.067 7.68-17.067 17.067" transform="translate(1 1)"/>
  <path style="fill:#ffe079" d="M191 140.227h-34.133c0-9.387 7.68-17.067 17.067-17.067 9.386 0 17.066 7.68 17.066 17.067zm102.4 102.4h-34.133c0-9.387 7.68-17.067 17.067-17.067s17.066 7.68 17.066 17.067zM105.667 106.093c9.387 0 17.067 7.68 17.067 17.067s-7.68 17.067-17.067 17.067S88.6 132.547 88.6 123.16s7.68-17.067 17.067-17.067zm187.733 51.2c9.387 0 17.067 7.68 17.067 17.067s-7.68 17.067-17.067 17.067-17.067-7.68-17.067-17.067 7.68-17.067 17.067-17.067zm136.533 51.2v34.133h-102.4v-34.133H344.6V174.36H447v34.133h-17.067zm-73.386-34.986-.853.853-17.067-29.867 74.24-42.667 17.067 29.867-73.387 41.814zm-97.28-67.414c9.387 0 17.067 7.68 17.067 17.067s-7.68 17.067-17.067 17.067-17.067-7.68-17.067-17.067 7.68-17.067 17.067-17.067zm-179.2 68.267h-8.533v-34.133H225.133v34.133H216.6s-8.533 42.667-25.6 68.267h-85.333c-17.067-25.6-25.6-68.267-25.6-68.267z" transform="translate(1 1)"/>
  <path style="fill:#e4f2de" d="M293.4 276.76v42.667c0 23.893-18.773 42.667-42.667 42.667s-42.667-18.773-42.667-42.667V276.76H293.4zm-42.667-204.8h-25.6c-10.24 0-17.067-6.827-17.067-17.067v-51.2H293.4v51.2c0 11.093-6.827 17.067-17.067 17.067h-25.6z" transform="translate(1 1)"/>
  <path style="fill:#ffd0a1" d="M37.4 362.093V276.76h170.667v42.667c0 23.893 18.773 42.667 42.667 42.667S293.4 343.32 293.4 319.427V276.76h170.667v187.733H37.4v-102.4z" transform="translate(1 1)"/>
  <path style="fill:#51565f" d="M465.067 503.893H38.4c-21.333 0-38.4-17.067-38.4-38.4V277.76c0-2.56 1.707-4.267 4.267-4.267s4.267 1.707 4.267 4.267v187.733c0 16.213 13.653 29.867 29.867 29.867h426.667c16.213 0 29.867-13.653 29.867-29.867v-409.6c0-16.213-13.653-29.867-29.867-29.867h-166.4v29.867c0 12.8-8.533 21.333-21.333 21.333h-51.2c-12.8 0-21.333-8.533-21.333-21.333V26.027H38.4c-16.213 0-29.867 13.653-29.867 29.867V239.36h90.453c-11.947-21.333-19.627-50.347-21.333-59.733h-5.12c-2.56 0-4.267-1.707-4.267-4.267v-34.133c0-2.56 1.707-4.267 4.267-4.267H89.6c-2.56-3.413-4.267-7.68-4.267-12.8 0-11.947 9.387-21.333 21.333-21.333S128 112.213 128 124.16c0 5.12-1.707 9.387-4.267 12.8h30.72c1.707-9.387 10.24-17.067 20.48-17.067s18.773 7.68 20.48 17.067h30.72c2.56 0 4.267 1.707 4.267 4.267v34.133c0 2.56-1.707 4.267-4.267 4.267h-5.12c-2.56 9.387-9.387 38.4-21.333 59.733h57.173c1.707-9.387 10.24-17.067 20.48-17.067s18.773 7.68 21.333 17.067h25.6v-29.867c0-2.56 1.707-4.267 4.267-4.267h12.8V175.36c0-2.56 1.707-4.267 4.267-4.267h4.267l-13.653-23.04c-.853-.853-.853-2.56-.853-3.413 0-.853.853-1.707 1.707-2.56l74.24-42.667c1.707-.853 4.267-.853 5.973 1.707l17.067 29.867c.853.853.853 2.56.853 3.413 0 .853-.853 1.707-1.707 2.56l-25.6 14.507c-1.707.853-4.267.853-5.973-1.707-.853-1.707-.853-4.267 1.707-5.973l22.187-12.8-12.8-22.187-66.56 38.4 13.653 23.893h71.68c2.56 0 4.267 1.707 4.267 4.267 0 2.56-1.707 4.267-4.267 4.267h-81.067v29.867c0 2.56-1.707 4.267-4.267 4.267h-12.8v25.6h93.867v-25.6h-46.933c-2.56 0-4.267-1.707-4.267-4.267s1.707-4.267 4.267-4.267h51.2c2.56 0 4.267 1.707 4.267 4.267v29.867h25.6V64.427c0-2.56-1.707-4.267-4.267-4.267h-128c-2.56 0-4.267-1.707-4.267-4.267 0-2.56 1.707-4.267 4.267-4.267h128c6.827 0 12.8 5.973 12.8 12.8v179.2c0 2.56-1.707 4.267-4.267 4.267H5.12c-2.56 0-4.267-1.707-4.267-4.267V55.893c0-21.333 17.067-38.4 38.4-38.4h166.4v-12.8c0-2.56 1.707-4.267 4.267-4.267h85.333c2.56 0 4.267 1.707 4.267 4.267v12.8h166.4c21.333 0 38.4 17.067 38.4 38.4v409.6c-.853 21.334-17.92 38.4-39.253 38.4zM265.387 239.36h23.893c-1.707-5.12-6.827-8.533-11.947-8.533-5.119 0-10.24 3.413-11.946 8.533zm-156.16 0h81.067c15.36-24.747 23.893-64.853 23.893-64.853 0-1.707 2.56-3.413 4.267-3.413h4.267v-25.6H77.653v25.6h98.133c2.56 0 4.267 1.707 4.267 4.267 0 2.56-1.707 4.267-4.267 4.267H87.04c1.707 11.945 9.387 40.105 22.187 59.732zm53.76-102.4h23.893c-1.707-5.12-6.827-8.533-11.947-8.533s-10.24 3.413-11.946 8.533zm-56.32 0c6.827 0 12.8-5.973 12.8-12.8 0-6.827-5.973-12.8-12.8-12.8s-12.8 5.973-12.8 12.8c0 6.826 5.973 12.8 12.8 12.8zM256 68.693h21.333c7.68 0 12.8-5.12 12.8-12.8V8.96h-76.8v46.933c0 7.68 5.12 12.8 12.8 12.8h21.333v-12.8c0-2.56 1.707-4.267 4.267-4.267 2.56 0 4.267 1.707 4.267 4.267v12.8zM465.067 469.76H38.4c-2.56 0-4.267-1.707-4.267-4.267V277.76c0-2.56 1.707-4.267 4.267-4.267h170.667c2.56 0 4.267 1.707 4.267 4.267v42.667c0 21.333 17.067 38.4 38.4 38.4s38.4-17.067 38.4-38.4v-38.4H243.2c-2.56 0-4.267-1.707-4.267-4.267 0-2.56 1.707-4.267 4.267-4.267h221.867c2.56 0 4.267 1.707 4.267 4.267v187.733c-.001 2.56-1.707 4.267-4.267 4.267zm-422.4-8.533H460.8V367.36h-64c-2.56 0-4.267-1.707-4.267-4.267 0-2.56 1.707-4.267 4.267-4.267h64v-76.8H298.667v38.4c0 25.6-21.333 46.933-46.933 46.933S204.8 346.027 204.8 320.427v-38.4H42.667v76.8h29.867c2.56 0 4.267 1.707 4.267 4.267 0 2.56-1.707 4.267-4.267 4.267H42.667v93.866zM192 418.56H89.6c-2.56 0-4.267-1.707-4.267-4.267 0-2.56 1.707-4.267 4.267-4.267H192c2.56 0 4.267 1.707 4.267 4.267 0 2.56-1.707 4.267-4.267 4.267zm136.533-17.067H294.4c-2.56 0-4.267-1.707-4.267-4.267 0-2.56 1.707-4.267 4.267-4.267h34.133c2.56 0 4.267 1.707 4.267 4.267 0 2.56-1.707 4.267-4.267 4.267zm-76.8-76.8c-2.56 0-4.267-1.707-4.267-4.267v-8.533c0-2.56 1.707-4.267 4.267-4.267 2.56 0 4.267 1.707 4.267 4.267v8.533c0 2.56-1.707 4.267-4.267 4.267zM38.4 213.76c-2.56 0-4.267-1.707-4.267-4.267V64.427c0-6.827 5.973-12.8 12.8-12.8h128c2.56 0 4.267 1.707 4.267 4.267 0 2.56-1.707 4.267-4.267 4.267h-128c-2.56 0-4.267 1.707-4.267 4.267v145.067c.001 2.558-1.706 4.265-4.266 4.265zm256-17.067c-11.947 0-21.333-9.387-21.333-21.333 0-11.947 9.387-21.333 21.333-21.333 11.947 0 21.333 9.387 21.333 21.333 0 11.947-9.386 21.333-21.333 21.333zm0-34.133c-6.827 0-12.8 5.973-12.8 12.8 0 6.827 5.973 12.8 12.8 12.8s12.8-5.973 12.8-12.8c0-6.827-5.973-12.8-12.8-12.8zm-34.133-17.067c-11.947 0-21.333-9.387-21.333-21.333s9.387-21.333 21.333-21.333c11.947 0 21.333 9.387 21.333 21.333s-9.387 21.333-21.333 21.333zm0-34.133c-6.827 0-12.8 5.973-12.8 12.8 0 6.827 5.973 12.8 12.8 12.8 6.827 0 12.8-5.973 12.8-12.8 0-6.827-5.974-12.8-12.8-12.8z"/>
</svg>
