<svg height="800" width="800" xmlns="http://www.w3.org/2000/svg" viewBox="0 0 503.893 503.893" xml:space="preserve">
  <path style="fill:#ffd0a1" d="M327.96 215.813c0-18.773-15.36-34.133-34.133-34.133-18.773 0-34.133 15.36-34.133 34.133s15.36 34.133 34.133 34.133c18.773.001 34.133-15.359 34.133-34.133m0-136.533c0-18.773-15.36-34.133-34.133-34.133-18.773 0-34.133 15.36-34.133 34.133s15.36 34.133 34.133 34.133c18.773 0 34.133-15.36 34.133-34.133m68.267 68.267c-18.773 0-34.133-15.36-34.133-34.133 0 18.773-15.36 34.133-34.133 34.133 18.773 0 34.133 15.36 34.133 34.133-.001-18.773 15.359-34.133 34.133-34.133m68.266 68.266c0-18.773-15.36-34.133-34.133-34.133s-34.133 15.36-34.133 34.133 15.36 34.133 34.133 34.133 34.133-15.359 34.133-34.133m0-136.533c0-18.773-15.36-34.133-34.133-34.133s-34.133 15.36-34.133 34.133 15.36 34.133 34.133 34.133 34.133-15.36 34.133-34.133M430.36 11.013c37.547 0 68.267 30.72 68.267 68.267s-30.72 68.267-68.267 68.267c37.547 0 68.267 30.72 68.267 68.267s-30.72 68.267-68.267 68.267-68.267-30.72-68.267-68.267c0 37.547-30.72 68.267-68.267 68.267-11.947 0-23.893-3.413-34.133-9.387-10.24-5.973-19.627-14.507-25.6-25.6-5.973-10.24-9.387-21.333-9.387-34.133 0-37.547 30.72-68.267 68.267-68.267-37.547 0-68.267-30.72-68.267-68.267s30.72-68.267 68.267-68.267 68.267 30.72 68.267 68.267c.853-36.694 31.573-67.414 69.12-67.414" transform="translate(1 2)"/>
	<path style="fill:#e4f2de" d="M234.947 249.947c5.973 10.24 14.507 19.627 25.6 25.6v.853L47.213 489.733 4.547 447.067l17.067-51.2L55.747 430l34.133-34.133 145.067-145.92zM89.027 395.013l-34.133 34.133-34.134-34.133 51.2-17.067 17.067 17.067z" transform="translate(1 2)"/>
	<path style="fill:#51565f" d="M47.36 495.147c-.853 0-2.56 0-3.413-.853L1.28 451.627c-1.707-1.707-1.707-4.267 0-5.973 1.707-1.707 4.267-1.707 5.973 0l39.253 39.253L235.094 296.32c1.707-1.707 4.267-1.707 5.973 0 1.707 1.707 1.707 4.267 0 5.973L49.92 493.44c0 1.707-1.707 1.707-2.56 1.707zm-4.267-46.934c-.853 0-2.56 0-3.413-.853s-.853-1.707-.853-3.413c0-1.707 0-2.56.853-3.413l9.387-9.387-30.72-30.72c-.853-.853-.853-1.707-.853-3.413s0-2.56.853-3.413c1.707-1.707 4.267-1.707 5.973 0l30.72 30.72 28.16-28.16-13.653-13.653c-.853-.853-.853-1.707-.853-3.413s0-2.56.853-3.413c1.707-1.707 4.267-1.707 5.973 0l13.653 13.653 120.32-120.32c1.707-1.707 4.267-1.707 5.973 0 .853.853.853 1.707.853 3.413s0 2.56-.853 3.413L45.654 445.653c-.001 1.707-1.707 2.56-2.561 2.56zM431.36 290.347c-31.573 0-58.027-19.627-68.267-47.787-10.24 28.16-36.693 47.787-68.267 47.787-40.107 0-72.533-32.427-72.533-72.533 0-31.573 19.627-58.027 47.787-68.267-28.16-10.24-47.787-36.693-47.787-68.267 0-40.107 32.427-72.533 72.533-72.533 31.573 0 58.027 19.627 68.267 47.787 10.24-28.16 36.693-47.787 68.267-47.787 40.107 0 72.533 32.427 72.533 72.533 0 31.573-19.627 58.027-47.787 68.267 28.16 10.24 47.787 36.693 47.787 68.267 0 40.106-32.426 72.533-72.533 72.533zm-68.267-76.8c2.56 0 4.267 1.707 4.267 4.267 0 34.987 29.013 64 64 64s64-29.013 64-64-29.013-64-64-64c-2.56 0-4.267-1.707-4.267-4.267 0-2.56 1.707-4.267 4.267-4.267 34.987 0 64-29.013 64-64s-29.013-64-64-64-64 29.013-64 64c0 2.56-1.707 4.267-4.267 4.267s-4.267-1.707-4.267-4.267c0-34.987-29.013-64-64-64s-64 29.013-64 64 29.013 64 64 64c2.56 0 4.267 1.707 4.267 4.267 0 2.56-1.707 4.267-4.267 4.267-34.987 0-64 29.013-64 64s29.013 64 64 64 64-29.013 64-64c.001-2.561 1.707-4.267 4.267-4.267zm68.267 42.666c-21.333 0-38.4-17.067-38.4-38.4s17.067-38.4 38.4-38.4 38.4 17.067 38.4 38.4-17.067 38.4-38.4 38.4zm0-68.266c-16.213 0-29.867 13.653-29.867 29.867s13.653 29.867 29.867 29.867 29.867-13.653 29.867-29.867-13.654-29.867-29.867-29.867zm-136.533 68.266c-21.333 0-38.4-17.067-38.4-38.4s17.067-38.4 38.4-38.4 38.4 17.067 38.4 38.4-17.067 38.4-38.4 38.4zm0-68.266c-16.213 0-29.867 13.653-29.867 29.867s13.653 29.867 29.867 29.867c16.213 0 29.867-13.653 29.867-29.867s-13.654-29.867-29.867-29.867zm68.266 0c-2.56 0-4.267-1.707-4.267-4.267 0-16.213-13.653-29.867-29.867-29.867-2.56 0-4.267-1.707-4.267-4.267 0-2.56 1.707-4.267 4.267-4.267 16.213 0 29.867-13.653 29.867-29.867 0-2.56 1.707-4.267 4.267-4.267s4.267 1.707 4.267 4.267c0 16.213 13.653 29.867 29.867 29.867 2.56 0 4.267 1.707 4.267 4.267 0 2.56-1.707 4.267-4.267 4.267-16.213 0-29.867 13.653-29.867 29.867 0 2.56-1.707 4.267-4.267 4.267zm-16.213-38.4c6.827 3.413 12.8 9.387 16.213 16.213 3.413-6.827 9.387-12.8 16.213-16.213-6.827-3.413-12.8-9.387-16.213-16.213-3.413 6.826-9.386 12.799-16.213 16.213zm84.48-29.867c-21.333 0-38.4-17.067-38.4-38.4s17.067-38.4 38.4-38.4 38.4 17.067 38.4 38.4-17.067 38.4-38.4 38.4zm0-68.267c-16.213 0-29.867 13.653-29.867 29.867s13.653 29.867 29.867 29.867 29.867-13.653 29.867-29.867-13.654-29.867-29.867-29.867zM294.827 119.68c-21.333 0-38.4-17.067-38.4-38.4s17.067-38.4 38.4-38.4 38.4 17.067 38.4 38.4-17.067 38.4-38.4 38.4zm0-68.267c-16.213 0-29.867 13.653-29.867 29.867s13.653 29.867 29.867 29.867c16.213 0 29.867-13.653 29.867-29.867s-13.654-29.867-29.867-29.867z"/>
</svg>
