<svg height="800" width="800" xmlns="http://www.w3.org/2000/svg" viewBox="0 0 503.467 503.467" xml:space="preserve">
  <path style="fill:#50dd8e" d="M413.694 339.48c-12.8 5.12-32.427 5.12-32.427 5.12-11.947 0-23.04 0-34.133-.853-18.773-17.067-25.6-40.96-25.6-40.96-8.533-51.2 30.72-69.973 30.72-69.973 19.626 21.333 43.519 58.026 61.44 106.666" transform="translate(7 1)"/>
	<path style="fill:#e4f2de" d="M245.587 54.467c41.813 34.133 16.213 76.8 16.213 76.8-17.067-17.067-34.133-8.533-34.133-8.533s-.853 23.04 7.68 40.107l-.853 1.707c-17.92-4.267-35.84-7.68-50.347-7.68-46.933 0-85.333 12.8-85.333 59.733 0 41.813 58.88 87.893 150.187 111.787 17.067 4.267 34.987 8.533 54.613 11.093 13.653 1.707 28.16 3.413 42.667 4.267 11.093.853 23.04.853 34.133.853 0 0 19.627.853 31.573-4.267h.853c5.973 15.36 11.093 32.427 15.36 50.347-12.8 5.12-30.72 5.12-30.72 5.12-13.653 0-30.72 0-50.347-1.707C236.2 387.267 48.467 353.133 48.467 208.067 48.467 88.6 100.52 3.267 185 3.267c33.28 0 57.173 21.333 60.587 51.2" transform="translate(7 1)"/>
	<path style="fill:#ffd0a1" d="M220.84 267.8c-10.24-68.267 33.28-98.133 33.28-98.133 18.773 5.973 36.693 13.653 52.907 23.04 0 0-44.373 32.427-35.84 92.16 0 0 8.533 31.573 34.133 52.907v1.707c-18.773-2.56-37.547-6.827-54.613-11.093l.853-1.707c-23.893-21.334-30.72-58.881-30.72-58.881" transform="translate(7 1)"/>
	<path style="fill:#80d6fa" d="M352.254 231.96s-39.253 18.773-30.72 69.973c0 0 6.827 23.893 25.6 40.96-14.507-.853-29.013-2.56-42.667-4.267v-1.707c-25.6-21.333-34.133-52.907-34.133-52.907-8.533-59.733 35.84-92.16 35.84-92.16 12.8 7.68 23.893 15.36 32.427 23.893 4.266 5.122 8.532 10.242 13.653 16.215z" transform="translate(7 1)"/>
	<path style="fill:#ff7474" d="M347.133 394.093c19.627.853 37.547 1.707 50.347 1.707 0 0 17.067 0 30.72-5.12 7.68 31.573 11.947 68.267 11.947 107.52-68.267-34.133-85.333-68.267-85.333-68.267s-8.533-12.8-8.533-34.133l.852-1.707zM253.267 169.667s-42.667 29.867-33.28 98.133c0 0 7.68 37.547 29.867 58.88l-.854 1.707C157.693 304.493 98.813 258.413 98.813 216.6c0-46.933 38.4-59.733 85.333-59.733 14.507 0 32.427 2.56 50.347 7.68 6.827.853 12.801 3.413 18.774 5.12" transform="translate(7 1)"/>
	<path style="fill:#80d6fa" d="M193.533 54.467c4.267 0 8.533 4.267 8.533 8.533s-4.267 8.533-8.533 8.533c-4.267 0-8.533-4.267-8.533-8.533s4.267-8.533 8.533-8.533" transform="translate(7 1)"/>
	<path style="fill:#51565f" d="M448 503.467c-.853 0-1.707 0-1.707-.853-69.12-34.133-86.187-69.12-87.04-69.973-.853-1.707 0-4.267 1.707-5.973 1.707-.853 4.267 0 5.973 1.707 0 0 16.213 31.573 76.8 63.147-1.707-133.12-56.32-217.6-85.333-254.293-8.533 5.12-32.427 23.893-25.6 64 0 2.56-.853 4.267-3.413 5.12-2.56 0-4.267-.853-5.12-3.413-6.827-42.667 17.92-64.853 28.16-71.68-4.267-5.12-7.68-8.533-10.24-11.093-7.68-7.68-17.92-15.36-29.013-21.333-8.533 6.827-39.253 36.693-32.427 86.187 0 2.56-1.707 4.267-3.413 5.12-2.56 0-4.267-1.707-5.12-3.413-6.827-50.347 21.333-81.067 33.28-92.16-13.653-7.68-29.013-13.653-44.373-18.773-7.68 5.973-38.4 34.133-29.867 93.013 0 2.56-1.707 4.267-3.413 5.12-2.56 0-4.267-1.707-5.12-3.413-7.68-54.613 17.067-85.333 29.013-97.28-22.187-6.827-43.52-10.24-59.733-10.24-55.467 0-81.067 17.92-81.067 55.467 0 58.027 118.613 123.733 277.333 123.733 2.56 0 4.267 1.707 4.267 4.267 0 2.56-1.707 4.267-4.267 4.267-163.84 0-285.867-69.973-285.867-132.267 0-42.667 29.013-64 89.6-64 45.227 0 120.32 24.747 157.013 60.587 23.893 23.893 103.253 116.907 103.253 285.013 0 1.707-.853 2.56-1.707 3.413-.852-.004-1.705-.004-2.559-.004zm-42.667-102.4c-82.773 0-354.133-13.653-354.133-192C51.2 83.627 107.52 0 192 0c21.333 0 39.253 7.68 51.2 23.04 6.827 8.533 11.947 19.627 13.653 30.72 41.813 35.84 16.213 80.213 15.36 81.067-.853.853-1.707 1.707-3.413 1.707-1.707 0-2.56 0-3.413-.853-14.507-14.507-29.013-7.68-29.013-7.68-1.707.853-4.267 0-5.973-1.707-1.707-1.707 0-4.267 1.707-5.973.853 0 17.067-8.533 34.987 5.12 4.267-10.24 11.947-35.84-10.24-58.88 0 5.12-.853 10.24-1.707 15.36-.853 2.56-2.56 3.413-5.12 3.413-2.56-.853-3.413-2.56-3.413-5.12 1.707-7.68 1.707-15.36.853-23.04v-2.56c-1.707-10.24-5.12-19.627-11.947-27.307-10.24-12.8-26.453-19.627-44.373-19.627-79.36 0-132.267 80.213-132.267 200.533 0 169.813 264.533 183.467 345.6 183.467 2.56 0 4.267 1.707 4.267 4.267-.001 2.56-.854 5.12-3.415 5.12zM200.533 76.8c-6.827 0-12.8-5.973-12.8-12.8 0-6.827 5.973-12.8 12.8-12.8s12.8 5.973 12.8 12.8c0 6.827-5.973 12.8-12.8 12.8zm0-17.067c-2.56 0-4.267 1.707-4.267 4.267 0 2.56 1.707 4.267 4.267 4.267S204.8 66.56 204.8 64c0-2.56-1.706-4.267-4.267-4.267z"/>
</svg>
