<svg height="800" width="800" xmlns="http://www.w3.org/2000/svg" viewBox="0 0 502.835 502.835" xml:space="preserve">
  <path style="fill:#aab1ba" d="M233.667 207.324v17.067c0 19.627-14.507 34.133-34.133 34.133S165.4 244.871 165.4 224.391v-17.067c0-4.267 3.413-8.533 8.533-8.533h51.2c5.12 0 8.534 4.266 8.534 8.533" transform="translate(1 1)"/>
	<path style="fill:#f2edda" d="m299.373 325.937 53.76 17.92c0 15.36-3.413 43.52-26.453 67.413-15.36 15.36-39.253 28.16-75.947 34.987-36.693-6.827-60.587-19.627-75.947-34.987-23.893-23.893-26.453-52.053-26.453-67.413l51.2-17.92.853-.853c2.56.853 5.12 1.707 8.533 1.707 0 0 25.6 0 42.667-17.067 17.067 17.067 42.667 17.067 42.667 17.067 1.707 0 3.414 0 5.12-.854z" transform="translate(1 1)"/>
	<path style="fill:#ae938d" d="M361.667 412.124 319 497.457H3.267l8.533-34.133c8.533-34.133 93.867-51.2 128-51.2h34.133l.853-.853c15.36 15.36 38.4 28.16 75.947 34.987 36.693-6.827 60.587-20.48 75.947-34.987l.853.853h34.134zm128 51.2 8.533 34.133H378.733l34.133-78.507h.853l28.16 7.68c23.894 7.681 44.374 22.187 47.788 36.694z" transform="translate(1 1)"/>
	<path style="fill:#ffd0a1" d="m353.133 343.857-53.76-17.92c-1.707.853-3.413.853-5.973.853 0 0-25.6 0-42.667-17.067-17.067 17.067-42.667 17.067-42.667 17.067-3.413 0-5.973-.853-8.533-1.707l-.853.853-51.2 17.92c-17.067-25.6-25.6-68.267-25.6-68.267-9.387 0-17.067-7.68-17.067-17.067v-34.133c0-9.387 7.68-17.067 17.067-17.067V172.336c33.28-4.267 75.093-7.68 128-7.68s95.573 3.413 128 7.68V207.322c9.387 0 17.067 7.68 17.067 17.067v34.133c0 9.387-7.68 17.067-17.067 17.067.853.002-7.68 42.668-24.747 68.268zM233.667 207.324c0-4.267-3.413-8.533-8.533-8.533h-51.2c-5.12 0-8.533 4.267-8.533 8.533v17.067c0 20.48 14.507 34.133 34.133 34.133s34.133-14.507 34.133-34.133v-17.067z" transform="translate(1 1)"/>
	<path style="fill:#e4f2de" d="m412.867 418.951-34.133 78.507H319l42.667-85.333c11.946-.001 31.573 2.559 51.2 6.826" transform="translate(1 1)"/>
	<path style="fill:#aab1ba" d="m481.133 147.591-17.067 42.667s-27.307-10.24-85.333-17.92c-32.427-4.267-75.093-7.68-128-7.68s-95.573 3.413-128 7.68c-58.027 7.68-85.333 17.92-85.333 17.92l-17.067-42.667S63 130.524 105.666 104.924 139.8 2.524 250.733 2.524s110.933 76.8 145.067 102.4 85.333 42.667 85.333 42.667" transform="translate(1 1)"/>
	<path style="fill:#51565f" d="M499.2 502.724c-1.707 0-3.413-1.707-4.267-3.413l-8.533-34.133c-3.413-12.8-21.333-25.6-46.08-34.133-2.56-.853-3.413-3.413-2.56-5.12.853-1.707 3.413-3.413 5.12-2.56 27.307 8.533 47.787 24.747 51.2 40.107l8.533 34.133c.854 2.559-.853 4.266-3.413 5.119.853 0 0 0 0 0zm-494.933 0h-.854c-2.56-.853-3.413-2.56-3.413-5.12l8.533-34.133c9.387-37.547 99.84-54.613 132.267-54.613 2.56 0 4.267 1.707 4.267 4.267 0 2.56-1.707 4.267-4.267 4.267-38.4 0-116.907 18.773-123.733 47.787l-8.533 34.133c-.854 1.705-2.561 3.412-4.267 3.412zm375.466 0H320c-1.707 0-2.56-.853-3.413-1.707-.853-.853-.853-2.56 0-4.267l42.667-85.333c.853-1.707 2.56-2.56 3.413-2.56 13.653 0 33.28 2.56 52.053 6.827.853 0 2.56.853 2.56 2.56s.853 2.56 0 3.413l-34.133 78.507c0 1.707-1.707 2.56-3.414 2.56zm-52.906-8.533h50.347l30.72-71.68c-15.36-3.413-30.72-5.12-42.667-5.12l-38.4 76.8zm-75.094 8.533c-2.56 0-4.267-1.707-4.267-4.267V481.39c0-2.56 1.707-4.267 4.267-4.267 2.56 0 4.267 1.707 4.267 4.267v17.067c0 2.56-1.707 4.267-4.267 4.267zm0-51.2s-.853 0 0 0c-91.307-16.213-106.667-72.533-106.667-104.96-14.507-22.187-22.187-55.467-24.747-65.707-10.24-1.707-17.92-10.24-17.92-21.333v-34.133c0-11.947 9.387-21.333 21.333-21.333 2.56 0 4.267 1.707 4.267 4.267 0 2.56-1.707 4.267-4.267 4.267-6.827 0-12.8 5.973-12.8 12.8v34.133c0 6.827 5.973 12.8 12.8 12.8 1.707 0 3.413 1.707 4.267 3.413 0 0 7.68 39.253 23.04 64l22.187-7.68c2.56-.853 4.267.853 5.12 2.56v1.707c0 1.707-.853 3.413-2.56 4.267l-23.04 7.68c.853 29.867 15.36 79.36 98.133 94.72 82.773-15.36 97.28-64.853 98.133-94.72l-23.04-7.68c-1.707-.853-2.56-2.56-2.56-4.267v-1.707c.853-2.56 3.413-3.413 5.12-2.56l22.187 7.68c15.36-24.747 23.04-64 23.04-64 0-1.707 2.56-3.413 4.267-3.413 6.827 0 12.8-5.973 12.8-12.8v-34.133c0-6.827-5.973-12.8-12.8-12.8-2.56 0-4.267-1.707-4.267-4.267 0-2.56 1.707-4.267 4.267-4.267 11.947 0 21.333 9.387 21.333 21.333v34.133c0 10.24-7.68 19.627-17.92 21.333-2.56 10.24-10.24 43.52-24.747 65.707 1.708 32.427-13.652 88.747-104.959 104.96.854 0 0 0 0 0zm8.534-93.867H243.2c-2.56 0-4.267-1.707-4.267-4.267 0-2.56 1.707-4.267 4.267-4.267h17.067c2.56 0 4.267 1.707 4.267 4.267-.001 2.561-1.707 4.267-4.267 4.267zm34.133-25.6c-.853 0-24.747 0-42.667-15.36-17.92 15.36-41.813 15.36-42.667 15.36-11.947 0-21.333-9.387-21.333-21.333 0-11.947 9.387-21.333 21.333-21.333 2.56 0 4.267 1.707 4.267 4.267 0 2.56-1.707 4.267-4.267 4.267-6.827 0-12.8 5.973-12.8 12.8s5.973 12.8 12.8 12.8c0 0 23.893 0 39.253-16.213 1.707-1.707 4.267-1.707 5.973 0 15.36 15.36 39.253 16.213 39.253 16.213 6.827 0 12.8-5.973 12.8-12.8s-5.973-12.8-12.8-12.8c-2.56 0-4.267-1.707-4.267-4.267 0-2.56 1.707-4.267 4.267-4.267 11.947 0 21.333 9.387 21.333 21.333.002 11.947-8.531 21.333-20.478 21.333zm-147.627-63.146c-1.707 0-2.56-.853-3.413-1.707-.853-.853-.853-1.707-.853-2.56 0-1.707.853-2.56 1.707-3.413l23.04-15.36c-3.413-5.973-5.12-12.8-5.12-19.627v-17.067c0-6.827 5.973-12.8 12.8-12.8h51.2c4.267 0 8.533 2.56 11.093 5.973l46.933-31.573c-10.24 0-21.333-.853-32.427-.853-142.507 0-210.773 24.747-211.627 25.6-2.56.853-4.267 0-5.12-2.56L17.92 150.298c-.853-2.56 0-4.267 2.56-5.12 0 0 42.667-17.067 84.48-42.667 12.8-7.68 21.333-21.333 29.867-35.84C153.6 35.098 174.934.111 251.734.111c81.067 0 104.96 40.107 123.733 72.533 7.68 12.8 14.507 23.893 23.893 30.72 33.28 24.747 83.627 41.813 84.48 41.813.853 0 1.707.853 2.56 2.56.853.853.853 2.56 0 3.413l-17.067 42.667c-.853 2.56-3.413 3.413-5.12 2.56-.853 0-54.613-19.627-164.693-24.747l-59.733 40.107v14.507c0 22.187-16.213 38.4-38.4 38.4-11.947 0-21.333-4.267-28.16-11.093l-23.04 15.36c-1.707-.854-2.56 0-3.414 0zm28.16-64.854c-2.56 0-4.267 1.707-4.267 4.267v17.067c0 17.92 11.947 29.867 29.867 29.867 17.067 0 29.867-12.8 29.867-29.867v-17.067c0-2.56-1.707-4.267-4.267-4.267h-51.2zm76.8-42.666c126.293 0 194.56 18.773 210.773 24.747l13.653-34.987c-12.8-5.12-53.76-20.48-81.92-41.813-10.24-7.68-17.92-20.48-25.6-33.28-18.772-31.574-40.106-68.267-116.906-68.267-71.68 0-91.307 31.573-110.08 62.293-9.387 15.36-17.92 29.867-33.28 39.253-34.987 21.333-70.827 36.693-81.92 40.96l13.653 34.987c17.067-5.12 85.334-23.893 211.627-23.893zm51.2 76.8c-2.56 0-4.267-1.707-4.267-4.267v-4.267h-12.8c-2.56 0-4.267-1.707-4.267-4.267s1.707-4.267 4.267-4.267H320c2.56 0 4.267 1.707 4.267 4.267s-1.707 4.267-4.267 4.267h-12.8v4.267c0 2.56-1.707 4.267-4.267 4.267zM294.4 118.724c-.853 0-1.707 0-2.56-.853l-40.107-23.893-40.107 23.893c-1.707.853-4.267.853-5.973-1.707 0-.853-.853-1.707-.853-2.56 0-1.707.853-2.56 1.707-3.413L243.2 88.004l-36.693-22.187c-1.707-.853-1.707-2.56-1.707-3.413s0-1.707.853-2.56c.853-1.707 3.413-2.56 5.973-1.707l40.107 23.893 40.107-23.893c1.707-.853 4.267-.853 5.973 1.707 0 .853.853 1.707.853 2.56 0 1.707-.853 2.56-1.707 3.413l-36.693 22.187 36.693 22.187c1.707.853 1.707 2.56 1.707 3.413s0 1.707-.853 2.56c-.853 1.707-1.706 2.56-3.413 2.56z"/>
</svg>
