<svg height="800" width="800" xmlns="http://www.w3.org/2000/svg" viewBox="0 0 503.467 503.467" xml:space="preserve">
  <path style="fill:#ffd0a1" d="M298.467 45.933v34.133c0 4.267-3.413 8.533-8.533 8.533h-102.4c-4.267 0-8.533-4.267-8.533-8.533V45.933c0-4.267 4.267-8.533 8.533-8.533h102.4c5.119 0 8.533 4.267 8.533 8.533zm-204.8 384H383.8V293.4H93.667v136.533z" transform="translate(13 1)"/>
	<path style="fill:#ae938d" d="M383.8 242.2v51.2H93.667v-51.2c0-18.773 8.533-34.133 25.6-42.667l59.733-25.6c17.067-8.533 17.067-25.6 17.067-34.133V88.6H281.4v51.2c0 8.533 0 25.6 17.067 34.133l59.733 25.6c17.067 8.534 25.6 23.894 25.6 42.667zm0 187.733v34.133c0 18.773-15.36 34.133-34.133 34.133H127.8c-18.773 0-34.133-15.36-34.133-34.133v-34.133H383.8z" transform="translate(13 1)"/>
	<path style="fill:#e4f2de" d="M213.133 37.4h51.2V3.267h-51.2z" transform="translate(13 1)"/>
	<path style="fill:#51565f" d="M362.667 503.467H140.8c-21.333 0-38.4-17.067-38.4-38.4V243.2c0-21.333 10.24-37.547 28.16-46.08l59.733-25.6c14.507-6.827 14.507-22.187 14.507-29.867V94.72h-4.267c-6.827 0-12.8-5.973-12.8-12.8V47.787c0-6.827 5.973-12.8 12.8-12.8h21.333V4.267c0-2.56 1.707-4.267 4.267-4.267h51.2c2.56 0 4.267 1.707 4.267 4.267v29.867h21.333c6.827 0 12.8 5.973 12.8 12.8v34.133c0 6.827-5.973 12.8-12.8 12.8h-4.267V140.8c0 7.68 0 23.04 14.507 30.72l59.733 25.6c17.92 9.387 28.16 25.6 28.16 46.933V465.92c.001 20.48-17.066 37.547-38.399 37.547zm-251.734-204.8v166.4c0 16.213 13.653 29.867 29.867 29.867h221.867c16.213 0 29.867-13.653 29.867-29.867V435.2H140.8c-2.56 0-4.267-1.707-4.267-4.267 0-2.56 1.707-4.267 4.267-4.267h251.733V243.2c0-17.92-7.68-31.573-23.04-39.253l-59.733-25.6c-19.627-10.24-19.627-29.867-19.627-38.4v-51.2c0-2.56 1.707-4.267 4.267-4.267h8.533c2.56 0 4.267-1.707 4.267-4.267V46.08c0-2.56-1.707-4.267-4.267-4.267h-102.4c-2.56 0-4.267 1.707-4.267 4.267v34.133c0 2.56 1.707 4.267 4.267 4.267h59.733c2.56 0 4.267 1.707 4.267 4.267s-1.707 4.267-4.267 4.267h-46.933v46.933c0 8.533 0 28.16-19.627 37.547l-59.733 25.6c-15.36 7.68-23.04 21.333-23.04 38.4v46.933h251.733c2.56 0 4.267 1.707 4.267 4.267 0 2.56-1.707 4.267-4.267 4.267H110.933v1.706zM230.4 34.133h42.667v-25.6H230.4v25.6zm64 358.4c-.853 0-1.707 0-2.56-.853l-40.107-23.893-40.107 23.893c-1.707.853-4.267.853-5.973-1.707-1.707-2.56-.853-4.267 1.707-5.973l36.693-22.187-36.693-22.187c-1.707-.853-2.56-3.413-1.707-5.973s3.413-2.56 5.973-1.707l40.107 23.893 40.107-23.893c1.707-.853 4.267-.853 5.973 1.707.853 1.707.853 4.267-1.707 5.973l-36.693 22.187L296.107 384c1.707.853 2.56 3.413 1.707 5.973-.854 1.707-1.707 2.56-3.414 2.56zM362.667 256c-2.56 0-4.267-1.707-4.267-4.267 0-13.653-5.973-17.067-5.973-17.92l-33.28-12.8c-2.56-.853-3.413-3.413-2.56-5.12.853-2.56 3.413-3.413 5.12-2.56l34.133 12.8c1.707.853 11.093 5.973 11.093 25.6 0 2.56-1.706 4.267-4.266 4.267z"/>
</svg>
