<svg height="800" width="800" xmlns="http://www.w3.org/2000/svg" viewBox="0 0 503.497 503.497" xml:space="preserve">
  <path style="fill:#ae938d" d="M72.386 37.415v290.133H4.12v-102.4l17.067-17.067L4.12 191.015v-153.6c0-18.773 15.36-34.133 34.133-34.133s34.133 15.36 34.133 34.133" transform="translate(1 1)"/>
	<path style="fill:#ffd0a1" d="M430.786 361.682v85.333H362.52l-8.533 8.533-8.533-8.533h-204.8v17.067c0 18.773-15.36 34.133-34.133 34.133s-34.133-15.36-34.133-34.133v-51.2l17.067-17.067-17.067-17.067V37.415c0-18.773-15.36-34.133-34.133-34.133h358.4c18.773 0 34.133 15.36 34.133 34.133v102.4h-34.133l34.133 34.133v153.6l-17.067 17.067 17.065 17.067z" transform="translate(1 1)"/>
	<path style="fill:#e4f2de" d="M499.053 447.015v17.067c0 18.773-15.36 34.133-34.133 34.133h-358.4c18.773 0 34.133-15.36 34.133-34.133v-17.067h204.8l8.533 8.533 8.533-8.533h136.534z" transform="translate(1 1)"/>
	<path style="fill:#51565f" d="M465.92 503.482h-307.2c-2.56 0-4.267-1.707-4.267-4.267 0-2.56 1.707-4.267 4.267-4.267h307.2c16.213 0 29.867-13.653 29.867-29.867v-12.8h-130.56l-7.68 7.68c-1.707 1.707-4.267 1.707-5.973 0l-7.68-7.68H145.067v12.8c0 21.333-17.067 38.4-38.4 38.4s-38.4-17.067-38.4-38.4v-51.2c0-.853.853-2.56.853-3.413l13.653-13.653-13.653-13.653c-.853-.853-.853-1.707-.853-3.413V38.415c0-16.213-13.653-29.867-29.867-29.867S8.533 22.202 8.533 38.415v151.893l16.213 16.213c1.707 1.707 1.707 4.267 0 5.973L8.533 228.709v96.427H38.4c2.56 0 4.267 1.707 4.267 4.267 0 2.56-1.707 4.267-4.267 4.267H4.267c-2.56 0-4.267-1.707-4.267-4.267v-102.4c0-.853.853-2.56.853-3.413l13.653-13.653L.853 196.282C0 195.428 0 194.575 0 192.868v-153.6C0 17.935 17.067.868 38.4.868s38.4 17.067 38.4 38.4v339.627l16.213 16.213c1.707 1.707 1.707 4.267 0 5.973L76.8 417.295v49.493c0 16.213 13.653 29.867 29.867 29.867s29.867-13.653 29.867-29.867v-17.067c0-2.56 1.707-4.267 4.267-4.267h204.8c.853 0 2.56.853 3.413.853l5.12 5.12 5.12-5.12c.853-.853 1.707-.853 3.413-.853H499.2c2.56 0 4.267 1.707 4.267 4.267v17.067c.853 19.627-16.214 36.694-37.547 36.694zm-34.134-85.333c-2.56 0-4.267-1.707-4.267-4.267v-49.493l-16.213-16.213c-1.707-1.707-1.707-4.267 0-5.973l16.213-16.213V175.802l-33.28-33.28c-.853-.853-1.707-3.413-.853-4.267.853-.853 2.56-2.56 4.267-2.56h29.867v-97.28c0-16.213-13.653-29.867-29.867-29.867H98.986c-2.56 0-4.267-1.707-4.267-4.267S96.426.014 98.986.014h298.667c21.333 0 38.4 17.067 38.4 38.4v102.4c0 2.56-1.707 4.267-4.267 4.267h-23.893l26.453 26.453c.853.853.853 1.707.853 3.413v153.6c0 .853-.853 2.56-.853 3.413l-13.653 13.653 13.653 13.653c.853.853.853 1.707.853 3.413v51.2c.854 2.563-.853 4.27-3.413 4.27zM312.32 384.015h-34.133c-2.56 0-4.267-1.707-4.267-4.267 0-2.56 1.707-4.267 4.267-4.267h34.133c2.56 0 4.267 1.707 4.267 4.267-.001 2.561-1.707 4.267-4.267 4.267zm-68.267 0h-102.4c-2.56 0-4.267-1.707-4.267-4.267 0-2.56 1.707-4.267 4.267-4.267h102.4c2.56 0 4.267 1.707 4.267 4.267 0 2.561-1.707 4.267-4.267 4.267zm102.4-51.2h-102.4c-2.56 0-4.267-1.707-4.267-4.267s1.707-4.267 4.267-4.267h102.4c2.56 0 4.267 1.707 4.267 4.267s-1.707 4.267-4.267 4.267zm-136.533 0h-17.067c-2.56 0-4.267-1.707-4.267-4.267s1.707-4.267 4.267-4.267h17.067c2.56 0 4.267 1.707 4.267 4.267s-1.707 4.267-4.267 4.267zm-51.2 0h-17.067c-2.56 0-4.267-1.707-4.267-4.267s1.707-4.267 4.267-4.267h17.067c2.56 0 4.267 1.707 4.267 4.267s-1.707 4.267-4.267 4.267zm170.666-51.2h-51.2c-2.56 0-4.267-1.707-4.267-4.267 0-2.56 1.707-4.267 4.267-4.267h51.2c2.56 0 4.267 1.707 4.267 4.267 0 2.561-1.706 4.267-4.267 4.267zm-85.333 0h-17.067c-2.56 0-4.267-1.707-4.267-4.267 0-2.56 1.707-4.267 4.267-4.267h17.067c2.56 0 4.267 1.707 4.267 4.267 0 2.561-1.707 4.267-4.267 4.267zm-51.2 0h-51.2c-2.56 0-4.267-1.707-4.267-4.267 0-2.56 1.707-4.267 4.267-4.267h51.2c2.56 0 4.267 1.707 4.267 4.267 0 2.561-1.707 4.267-4.267 4.267zm153.6-51.2h-68.267c-2.56 0-4.267-1.707-4.267-4.267 0-2.56 1.707-4.267 4.267-4.267h68.267c2.56 0 4.267 1.707 4.267 4.267 0 2.561-1.707 4.267-4.267 4.267zm-102.4 0h-102.4c-2.56 0-4.267-1.707-4.267-4.267 0-2.56 1.707-4.267 4.267-4.267h102.4c2.56 0 4.267 1.707 4.267 4.267 0 2.561-1.707 4.267-4.267 4.267zm85.333-51.2h-102.4c-2.56 0-4.267-1.707-4.267-4.267 0-2.56 1.707-4.267 4.267-4.267h102.4c2.56 0 4.267 1.707 4.267 4.267 0 2.561-1.706 4.267-4.267 4.267zm-136.533 0h-51.2c-2.56 0-4.267-1.707-4.267-4.267 0-2.56 1.707-4.267 4.267-4.267h51.2c2.56 0 4.267 1.707 4.267 4.267 0 2.561-1.707 4.267-4.267 4.267zm51.2-51.2h-102.4c-2.56 0-4.267-1.707-4.267-4.267s1.707-4.267 4.267-4.267h102.4c2.56 0 4.267 1.707 4.267 4.267s-1.707 4.267-4.267 4.267z"/>
</svg>
