<svg height="800" width="800" xmlns="http://www.w3.org/2000/svg" viewBox="0 0 503.467 503.467" xml:space="preserve">
  <path style="fill:#ae938d" d="M58.293 429.933h94.72v1.707c0 12.8 5.12 32.427 5.12 32.427 5.973 23.893 11.947 34.133 11.947 34.133h-76.8s-11.947-6.827-25.6-34.133c0 0-6.826-14.507-9.387-34.134zM93.28 3.267h76.8s-10.24 20.48-19.627 67.413v.853H54.027C71.947 16.067 93.28 3.267 93.28 3.267zM42.08 139.8h100.693v.853c-2.56 15.36-4.267 33.28-4.267 33.28-1.707 23.04-2.56 48.64-2.56 76.8 0 43.52 1.707 80.213 5.12 110.933H40.374c-4.267-29.867-6.827-66.56-6.827-110.933 0-29.013.853-54.613 2.56-76.8.853 0 1.706-17.066 5.973-34.133z" transform="translate(4 1)"/>
  <path style="fill:#ae938d" d="M246.88 139.8v221.867H141.067c-2.56-30.72-5.12-67.413-5.12-110.933 0-28.16.853-53.76 2.56-76.8 0 0 1.707-18.773 4.267-33.28v-.854H246.88zm0-136.533v68.267h-96.427v-.854C159.84 22.893 170.08 3.267 170.08 3.267h76.8zm-93.867 426.666h93.867V498.2h-17.067l-17.067-17.067L195.68 498.2h-25.6s-5.12-10.24-11.947-34.133c0 0-5.12-19.627-5.12-32.427v-1.707zM343.307 70.68l-96.427.853V3.267h42.667l17.067 17.067L323.68 3.267s10.24 20.48 19.627 67.413zm11.946 103.253c1.707 23.04 2.56 48.64 2.56 76.8 0 42.667-1.707 79.36-5.12 110.08v.853H246.88V139.8h104.107v.853c3.413 18.774 4.266 33.28 4.266 33.28zm-108.373 256h93.867v.853c-.853 17.067-5.12 33.28-5.12 33.28C328.8 487.96 323.68 498.2 323.68 498.2h-76.8v-68.267z" transform="translate(4 1)"/>
  <path style="fill:#ae938d" d="M438.88 71.533h-96.427v-.853c-9.387-47.787-19.627-67.413-19.627-67.413h76.8c.854 0 22.188 12.8 39.254 68.266zM350.987 139.8h99.84v.853c5.12 13.653 6.827 33.28 6.827 33.28 1.707 22.187 3.413 47.787 3.413 76.8 0 44.373-2.56 81.067-6.827 110.933H353.547v-.853c3.413-30.72 5.12-67.413 5.12-110.08 0-28.16-.853-53.76-2.56-76.8-.854 0-1.707-14.506-5.12-34.133zm-10.24 290.133h93.867v.853c-2.56 17.92-8.533 33.28-8.533 33.28-13.653 27.307-25.6 34.133-25.6 34.133h-76.8s5.12-10.24 11.947-34.133c-.001.001 4.265-16.213 5.119-34.133z" transform="translate(4 1)"/>
  <path style="fill:#e4f2de" d="M141.067 361.667H468.746l-17.067 68.267H42.08l-17.067-68.267h116.054zM451.68 71.533l17.067 68.267H25.013L42.08 71.533h409.6z" transform="translate(4 1)"/>
  <path style="fill:#aab1ba" d="M357.814 404.333c5.12 0 8.533-3.413 8.533-8.533s-3.413-8.533-8.533-8.533c-5.12 0-8.533 3.413-8.533 8.533s3.412 8.533 8.533 8.533zm0-290.133c5.12 0 8.533-3.413 8.533-8.533 0-5.12-3.413-8.533-8.533-8.533-5.12 0-8.533 3.413-8.533 8.533-.001 5.12 3.412 8.533 8.533 8.533zm-110.934 0c5.12 0 8.533-3.413 8.533-8.533 0-5.12-3.413-8.533-8.533-8.533s-8.533 3.413-8.533 8.533c0 5.12 3.413 8.533 8.533 8.533zm-110.933 0c5.12 0 8.533-3.413 8.533-8.533 0-5.12-3.413-8.533-8.533-8.533-5.12 0-8.533 3.413-8.533 8.533-.001 5.12 3.413 8.533 8.533 8.533zM246.88 404.333c5.12 0 8.533-3.413 8.533-8.533s-3.413-8.533-8.533-8.533-8.533 3.413-8.533 8.533 3.413 8.533 8.533 8.533zm-110.933 0c5.12 0 8.533-3.413 8.533-8.533s-3.413-8.533-8.533-8.533c-5.12 0-8.533 3.413-8.533 8.533s3.413 8.533 8.533 8.533z" transform="translate(4 1)"/>
  <path style="fill:#51565f" d="M174.08 503.467h-76.8c-.853 0-1.707 0-1.707-.853-.853 0-13.653-7.68-27.307-35.84-.853-1.707 0-4.267 1.707-5.973 1.707-.853 4.267 0 5.973 1.707 10.24 21.333 20.48 29.867 23.04 31.573h69.12c-2.56-5.12-5.12-15.36-9.387-29.013-.853-2.56.853-4.267 2.56-5.12 2.56-.853 4.267.853 5.12 2.56l10.24 31.573h20.48l16.213-16.213c1.707-1.707 4.267-1.707 5.973 0l16.213 16.213h11.093v-29.013c0-2.56 1.707-4.267 4.267-4.267s4.267 1.707 4.267 4.267v29.867h69.12l10.24-31.573c.853-2.56 3.413-3.413 5.12-2.56 2.56.853 3.413 2.56 2.56 5.12-3.413 13.653-6.827 23.04-9.387 29.013h69.12c2.56-1.707 12.8-10.24 23.04-32.427.853-1.707 3.413-2.56 5.973-1.707 1.707.853 3.413 3.413 1.707 5.973-13.653 28.16-26.453 35.84-27.307 35.84-.853 0-1.707.853-1.707.853H232.96c-.853 0-2.56-.853-3.413-.853l-13.653-13.653-13.653 13.653c-.853.853-1.707.853-3.413.853H174.08zm281.6-68.267H46.08c-1.707 0-3.413-1.707-4.267-3.413L24.747 363.52c0-.853 0-2.56.853-3.413.853-.853 1.707-1.707 3.413-1.707h10.24c-4.267-31.573-5.973-67.413-5.973-106.667 0-27.307.853-53.76 3.413-76.8 0-2.56 2.56-4.267 4.267-4.267 2.56 0 4.267 2.56 4.267 4.267-1.707 23.893-2.56 49.493-2.56 76.8 0 39.253 1.707 75.093 5.973 106.667h92.16c-3.413-32.427-4.267-68.267-4.267-106.667 0-26.453.853-52.907 2.56-76.8 0-2.56 2.56-4.267 4.267-4.267 2.56 0 4.267 2.56 4.267 4.267-1.707 23.893-2.56 50.347-2.56 76.8 0 38.4 1.707 74.24 4.267 106.667h98.133V174.933c0-2.56 1.707-4.267 4.267-4.267 2.56 0 4.267 1.707 4.267 4.267V358.4h98.133c3.413-32.427 4.267-68.267 4.267-106.667 0-26.453-.853-52.053-2.56-76.8 0-2.56 1.707-4.267 4.267-4.267s4.267 1.707 4.267 4.267c1.707 24.747 2.56 50.347 2.56 76.8 0 38.4-1.707 74.24-4.267 106.667h92.16c4.267-31.573 5.973-67.413 5.973-106.667 0-27.307-.853-52.907-2.56-76.8 0-2.56 1.707-4.267 4.267-4.267s4.267 1.707 4.267 4.267c1.707 23.893 3.413 49.493 3.413 76.8 0 39.253-1.707 75.093-5.973 106.667h10.24c1.707 0 2.56.853 3.413 1.707.853.853.853 2.56.853 3.413l-17.067 68.267c-2.561 1.706-4.267 3.413-5.974 3.413zm-406.187-8.533h402.773l15.36-59.733H148.48c-.853 0-.853.853-1.707.853-.853 0-1.707 0-2.56-.853H36.693l12.8 59.733zM361.814 409.6c-6.827 0-12.8-5.973-12.8-12.8s5.973-12.8 12.8-12.8 12.8 5.973 12.8 12.8-5.974 12.8-12.8 12.8zm0-17.067c-2.56 0-4.267 1.707-4.267 4.267s1.707 4.267 4.267 4.267 4.267-1.707 4.267-4.267-1.707-4.267-4.267-4.267zM250.88 409.6c-6.827 0-12.8-5.973-12.8-12.8s5.973-12.8 12.8-12.8 12.8 5.973 12.8 12.8-5.973 12.8-12.8 12.8zm0-17.067c-2.56 0-4.267 1.707-4.267 4.267s1.707 4.267 4.267 4.267 4.267-1.707 4.267-4.267-1.707-4.267-4.267-4.267zM139.947 409.6c-6.827 0-12.8-5.973-12.8-12.8s5.973-12.8 12.8-12.8c6.827 0 12.8 5.973 12.8 12.8s-5.974 12.8-12.8 12.8zm0-17.067c-2.56 0-4.267 1.707-4.267 4.267s1.707 4.267 4.267 4.267c2.56 0 4.267-1.707 4.267-4.267s-1.707-4.267-4.267-4.267zm332.8-247.466H29.013c-1.707 0-2.56-.853-3.413-1.707-.853-.853-.853-2.56-.853-3.413L41.813 71.68c.853-1.707 2.56-3.413 4.267-3.413h9.387C72.534 13.654 93.867.854 95.574.854 96.427.853 97.28 0 97.28 0h196.267c.853 0 2.56.853 3.413.853l13.653 13.653L324.266.853S325.119 0 325.973 0H404.48c.853 0 1.707 0 1.707.853.853.853 22.187 13.653 40.107 67.413h9.387c1.707 0 3.413 1.707 4.267 3.413l17.067 68.267c0 .853 0 2.56-.853 3.413-.855.854-1.709 1.708-3.415 1.708zm-438.613-8.534h432.64L451.414 76.8H48.64l-14.506 59.733zM350.72 68.267h87.04C424.107 25.6 407.04 11.093 403.627 8.533h-69.12c3.413 9.387 10.24 28.16 16.213 59.734zm-95.573 0h86.187L325.12 12.8l-11.947 11.947c-1.707 1.707-4.267 1.707-5.973 0L290.987 8.533h-36.693v59.733h.853zm-94.72 0h86.187V8.533h-69.12l-17.067 59.734zm-96.427 0h87.04c5.973-31.573 12.8-50.347 16.213-59.733h-69.12C94.72 11.093 78.507 25.6 64 68.267zm297.814 51.2c-6.827 0-12.8-5.973-12.8-12.8s5.973-12.8 12.8-12.8 12.8 5.973 12.8 12.8-5.974 12.8-12.8 12.8zm0-17.067c-2.56 0-4.267 1.707-4.267 4.267s1.707 4.267 4.267 4.267 4.267-1.707 4.267-4.267-1.707-4.267-4.267-4.267zM250.88 119.467c-6.827 0-12.8-5.973-12.8-12.8s5.973-12.8 12.8-12.8 12.8 5.973 12.8 12.8-5.973 12.8-12.8 12.8zm0-17.067c-2.56 0-4.267 1.707-4.267 4.267s1.707 4.267 4.267 4.267 4.267-1.707 4.267-4.267-1.707-4.267-4.267-4.267zm-110.933 17.067c-6.827 0-12.8-5.973-12.8-12.8s5.973-12.8 12.8-12.8c6.827 0 12.8 5.973 12.8 12.8s-5.974 12.8-12.8 12.8zm0-17.067c-2.56 0-4.267 1.707-4.267 4.267s1.707 4.267 4.267 4.267c2.56 0 4.267-1.707 4.267-4.267s-1.707-4.267-4.267-4.267z"/>
</svg>
