<svg height="800" width="800" xmlns="http://www.w3.org/2000/svg" viewBox="0 0 503.467 503.467" xml:space="preserve">
  <path style="fill:#ffd0a1" d="M156.867 295.96v133.973l18.773 7.68 23.893-13.653 5.974 23.893L344.6 498.2V105.667l-93.867-34.134H242.2V68.12L156.867 37.4z" transform="translate(1 1)"/>
	<path style="fill:#e4f2de" d="M242.2 3.267V68.12l8.533 3.413H344.6L327.533 37.4 344.6 3.267z" transform="translate(1 1)"/>
	<path style="fill:#ffd0a1" d="M156.867 295.96v133.973L37.4 463.213c-22.187 5.973-34.133-14.507-34.133-33.28V191l17.067-17.067-17.067-17.066v-46.933c0-18.773 15.36-32.427 34.133-38.4L156.867 37.4v258.56zM498.2 395.8v34.133c0 18.773-15.36 28.16-34.133 34.133L344.6 498.2V105.667l119.467-33.28c24.747-5.973 34.133 14.507 34.133 33.28v256l-17.067 17.067L498.2 395.8z" transform="translate(1 1)"/>
	<path style="fill:#51565f" d="M345.6 503.467h-1.707L204.8 453.12c-1.707-.853-2.56-1.707-2.56-2.56l-5.12-17.92-18.773 10.24c-.853.853-2.56.853-3.413 0l-19.627-7.68c-1.707-.853-2.56-2.56-2.56-4.267V304.64c-13.653 6.827-29.013 11.093-46.933 11.093-41.813 0-81.92-31.573-98.133-46.08v161.28c0 11.093 4.267 20.48 11.093 25.6 5.12 4.267 11.093 5.12 17.92 3.413l85.333-23.04c2.56-.853 4.267.853 5.12 2.56.853 1.707-.853 4.267-2.56 5.12l-85.333 23.04c-9.387 2.56-18.773.853-25.6-4.267C5.12 456.533 0 443.733 0 430.933V192c0-.853.853-2.56.853-3.413l13.653-13.653L.854 161.28C0 160.427 0 159.573 0 157.867v-46.933C0 92.16 14.507 75.947 36.693 68.267L156.16 34.133h2.56l51.2 18.773c2.56.853 3.413 3.413 2.56 5.12-.853 2.56-3.413 3.413-5.12 2.56l-49.493-17.92L40.107 76.8c-19.627 5.973-30.72 18.773-30.72 34.133v45.227L25.6 172.373c1.707 1.707 1.707 4.267 0 5.973L9.387 194.56v64.853c7.68 7.68 53.76 48.64 98.133 48.64 17.92 0 33.28-5.12 46.933-12.8V73.387c0-2.56 1.707-4.267 4.267-4.267 2.56 0 4.267 1.707 4.267 4.267v216.747c55.467-40.107 76.8-130.56 76.8-132.267.853-2.56 2.56-3.413 5.12-3.413 2.56.853 3.413 2.56 3.413 5.12-.853 5.12-23.04 101.547-85.333 140.8v128.853l14.507 5.973 21.333-11.947c.853-.853 2.56-.853 3.413 0l2.56 2.56 5.973 21.333 135.68 49.493 117.76-34.133c21.333-6.827 30.72-16.213 30.72-29.867v-32.427L478.72 384c-1.707-1.707-1.707-4.267 0-5.973l16.213-16.213V106.667c0-11.947-3.413-21.333-9.387-25.6-5.12-3.413-11.093-5.12-19.627-3.413L349.866 110.08v354.987c0 2.56-1.707 4.267-4.267 4.267s-4.267-1.707-4.267-4.267v-358.4c0-1.707 1.707-3.413 3.413-4.267l119.467-33.28c11.093-2.56 19.627-.853 26.453 4.267 7.68 6.827 12.8 17.92 12.8 32.427v256c0 .853-.853 2.56-.853 3.413L488.96 378.88l13.653 13.653c.853.853.853 1.707.853 3.413v34.133c0 23.893-21.333 33.28-37.547 38.4l-119.467 34.133c.001.855-.852.855-.852.855zm68.267-136.534c-.853 0-2.56 0-3.413-.853L396.8 352.427l-13.653 13.653c-1.707 1.707-4.267 1.707-5.973 0-1.707-1.707-1.707-4.267 0-5.973l17.067-17.067c1.707-1.707 4.267-1.707 5.973 0l17.067 17.067c1.707 1.707 1.707 4.267 0 5.973-.854.853-2.561.853-3.414.853zm-153.6 0c-.853 0-2.56 0-3.413-.853l-30.72-30.72-30.72 30.72c-1.707 1.707-4.267 1.707-5.973 0-1.707-1.707-1.707-4.267 0-5.973l34.133-34.133c1.707-1.707 4.267-1.707 5.973 0l13.653 13.653 30.72-30.72c1.707-1.707 4.267-1.707 5.973 0l34.133 34.133c1.707 1.707 1.707 4.267 0 5.973-1.707 1.707-4.267 1.707-5.973 0l-30.72-30.72-28.16 28.16 13.653 13.653c1.707 1.707 1.707 4.267 0 5.973.001.854-1.706.854-2.559.854zm170.666-102.4c-.853 0-2.56 0-3.413-.853l-13.653-13.653-13.653 13.653c-1.707 1.707-4.267 1.707-5.973 0s-1.707-4.267 0-5.973l17.067-17.067c1.707-1.707 4.267-1.707 5.973 0l17.067 17.067c1.707 1.707 1.707 4.267 0 5.973-.855.853-2.561.853-3.415.853zm34.134-34.133c-.853 0-2.56 0-3.413-.853L448 215.893l-13.653 13.653c-1.707 1.707-4.267 1.707-5.973 0s-1.707-4.267 0-5.973l17.067-17.067c1.707-1.707 4.267-1.707 5.973 0l17.067 17.067c1.707 1.707 1.707 4.267 0 5.973-.854.854-2.561.854-3.414.854zM243.2 128c-2.56 0-4.267-1.707-4.267-4.267V4.267c0-2.56 1.707-4.267 4.267-4.267h102.4c1.707 0 2.56.853 3.413 1.707.853.853.853 2.56 0 4.267L332.8 38.4l16.213 32.427c.853 1.707.853 2.56 0 4.267-.853.853-2.56 1.707-3.413 1.707h-68.267c-2.56 0-4.267-1.707-4.267-4.267 0-2.56 1.707-4.267 4.267-4.267h61.44l-13.653-28.16c-.853-.853-.853-2.56 0-3.413l13.653-28.16h-91.307v115.2c.001 2.559-1.706 4.266-4.266 4.266z"/>
</svg>
