<svg height="800" width="800" xmlns="http://www.w3.org/2000/svg" viewBox="0 0 502.835 502.835" xml:space="preserve">
  <path style="fill:#e4f2de" d="M250.733 164.657c35.84 0 67.413 1.707 93.867 4.267v1.707c10.24 11.947 17.067 29.013 17.067 29.013s17.067 25.6 8.533 76.8c-3.413 17.067-17.067 25.6-17.067 25.6l-8.533 25.6H319l-8.533 59.733H191l-8.533-59.733h-25.6l-8.533-25.6s-14.507-8.533-17.067-25.6c-8.533-51.2 8.533-76.8 8.533-76.8s7.68-15.36 17.92-29.867v-.853c26.453-2.56 57.173-4.267 93.013-4.267zm-17.066 42.667c0-4.267-3.413-8.533-8.533-8.533h-51.2c-5.12 0-8.533 4.267-8.533 8.533v17.067c0 20.48 14.507 34.133 34.133 34.133s34.133-14.507 34.133-34.133v-17.067zM412.867 418.951l-34.133 78.507H319l42.667-85.333c11.946-.001 31.573 2.559 51.2 6.826" transform="translate(1 1)"/>
	<path style="fill:#aab1ba" d="M233.667 207.324v17.067c0 19.627-14.507 34.133-34.133 34.133S165.4 244.871 165.4 224.391v-17.067c0-4.267 3.413-8.533 8.533-8.533h51.2c5.12 0 8.534 4.266 8.534 8.533M481.133 147.591l-17.067 42.667s-38.4-14.507-119.467-21.333c-26.453-2.56-58.027-4.267-93.867-4.267s-66.56 1.707-93.867 4.267C75.8 175.751 37.4 190.257 37.4 190.257L20.333 147.59S63 130.523 105.666 104.923 139.8 2.524 250.733 2.524s110.933 76.8 145.067 102.4 85.333 42.667 85.333 42.667" transform="translate(1 1)"/>
	<path style="fill:#ae938d" d="m489.667 463.324 8.533 34.133H378.733l34.133-78.507h.853l28.16 7.68c23.894 7.681 44.374 22.187 47.788 36.694zM319 497.457H3.267l8.533-34.133c8.533-34.133 93.867-51.2 128-51.2h34.133l76.8 51.2 76.8-51.2h34.133L319 497.457z" transform="translate(1 1)"/>
	<path style="fill:#aab1ba" d="M301.933 224.391c9.387 0 17.067 7.68 17.067 17.067s-7.68 17.067-17.067 17.067-17.067-7.68-17.067-17.067 7.681-17.067 17.067-17.067" transform="translate(1 1)"/>
	<path style="fill:#51565f" d="M499.2 502.724c-1.707 0-3.413-1.707-4.267-3.413l-8.533-34.133c-3.413-12.8-21.333-25.6-46.08-34.133-2.56-.853-3.413-3.413-2.56-5.12.853-1.707 3.413-3.413 5.12-2.56 27.307 8.533 47.787 24.747 51.2 40.107l8.533 34.133c.854 2.559-.853 4.266-3.413 5.119.853 0 0 0 0 0zm-494.933 0h-.854c-2.56-.853-3.413-2.56-3.413-5.12l8.533-34.133c9.387-37.547 99.84-54.613 132.267-54.613h34.133c.853 0 1.707 0 2.56.853l74.24 49.493 74.24-49.493c1.707-1.707 4.267-.853 5.973.853 1.707 1.707.853 4.267-.853 5.973L256 466.884v31.573c0 2.56-1.707 4.267-4.267 4.267s-4.267-1.707-4.267-4.267v-31.573l-74.24-49.493H140.8c-38.4 0-116.907 18.773-123.733 47.787l-8.533 34.133c-.854 1.706-2.561 3.413-4.267 3.413zm375.466 0H320c-1.707 0-2.56-.853-3.413-1.707-.853-.853-.853-2.56 0-4.267l42.667-85.333c.853-1.707 2.56-2.56 3.413-2.56 13.653 0 33.28 2.56 52.053 6.827.853 0 2.56.853 2.56 2.56s.853 2.56 0 3.413l-34.133 78.507c0 1.707-1.707 2.56-3.414 2.56zm-52.906-8.533h50.347l30.72-71.68c-15.36-3.413-30.72-5.12-42.667-5.12l-38.4 76.8zm-15.36-102.4H192c-1.707 0-4.267-1.707-4.267-3.413l-7.68-56.32h-22.187c-1.707 0-3.413-.853-4.267-2.56l-7.68-23.893c-4.267-2.56-15.36-11.947-17.92-27.307-8.533-52.053 8.533-78.507 9.387-80.213 1.707-1.707 4.267-2.56 5.973-.853 1.707 1.707 2.56 4.267.853 5.973 0 0-16.213 24.747-7.68 73.387 2.56 15.36 14.507 22.187 15.36 23.04.853.853 1.707 1.707 1.707 2.56l7.68 23.04h22.187c1.707 0 4.267 1.707 4.267 3.413l7.68 56.32h26.453v-31.574c0-2.56 1.707-4.267 4.267-4.267s4.267 1.707 4.267 4.267v29.867h42.667v-29.867c0-2.56 1.707-4.267 4.267-4.267s4.267 1.707 4.267 4.267v29.867h26.453l7.68-56.32c0-1.707 1.707-3.413 4.267-3.413h22.187l7.68-23.04c0-.853.853-1.707 1.707-2.56 0 0 11.947-7.68 15.36-23.04 7.68-48.64-7.68-73.387-7.68-73.387-1.707-1.707-.853-4.267.853-5.973 1.707-1.707 4.267-.853 5.973.853.853.853 17.92 27.307 9.387 80.213-3.413 15.36-13.653 24.747-17.92 27.307l-7.68 23.893c-.853 1.707-2.56 2.56-4.267 2.56h-22.187l-7.68 56.32c-.001 3.413-2.561 5.12-4.267 5.12zm-8.534-128c-11.947 0-21.333-9.387-21.333-21.333s9.387-21.333 21.333-21.333 21.333 9.387 21.333 21.333-9.386 21.333-21.333 21.333zm0-34.134c-6.827 0-12.8 5.973-12.8 12.8s5.973 12.8 12.8 12.8 12.8-5.973 12.8-12.8-5.973-12.8-12.8-12.8zm-102.4 34.134c-11.947 0-21.333-4.267-28.16-11.093l-11.947 7.68c-1.707 1.707-4.267.853-5.973-.853-.853-.853-.853-1.707-.853-2.56 0-1.707.853-2.56 1.707-3.413l11.947-7.68c-3.413-5.973-5.12-12.8-5.12-19.627v-17.067c0-6.827 5.973-12.8 12.8-12.8h51.2c4.267 0 8.533 2.56 11.093 5.973l46.933-31.573c-10.24 0-21.333-.853-32.427-.853-142.507 0-210.773 24.747-211.627 25.6-2.56.853-4.267 0-5.12-2.56L17.92 150.298c-.853-2.56 0-4.267 2.56-5.12 0 0 42.667-17.067 84.48-42.667 12.8-7.68 21.333-21.333 29.867-35.84C153.6 35.098 174.934.111 251.734.111c81.067 0 104.96 40.107 123.733 72.533 7.68 12.8 14.507 23.893 23.893 30.72 33.28 24.747 83.627 41.813 84.48 41.813.853 0 1.707.853 2.56 2.56.853.853.853 2.56 0 3.413l-17.067 42.667c-.853 2.56-3.413 3.413-5.12 2.56-.853 0-54.613-19.627-164.693-24.747l-59.733 40.107v14.507c-.854 21.333-17.067 37.547-39.254 37.547zm-25.6-59.734c-2.56 0-4.267 1.707-4.267 4.267v17.067c0 17.92 11.947 29.867 29.867 29.867 17.067 0 29.867-12.8 29.867-29.867v-17.067c0-2.56-1.707-4.267-4.267-4.267h-51.2zm76.8-42.666c126.293 0 194.56 18.773 210.773 24.747l13.653-34.987c-12.8-5.12-53.76-20.48-81.92-41.813-10.24-7.68-17.92-20.48-25.6-33.28-18.772-31.574-40.106-68.267-116.906-68.267-71.68 0-91.307 31.573-110.08 62.293-9.387 15.36-17.92 29.867-33.28 39.253-34.987 21.333-70.827 36.693-81.92 40.96l13.653 34.987c17.067-5.12 85.334-23.893 211.627-23.893zm42.667-42.667c-.853 0-1.707 0-2.56-.853l-40.107-23.893-40.107 23.893c-1.707.853-4.267.853-5.973-1.707 0-.853-.853-1.707-.853-2.56 0-1.707.853-2.56 1.707-3.413L243.2 88.004l-36.693-22.187c-1.707-.853-1.707-2.56-1.707-3.413s0-1.707.853-2.56c.853-1.707 3.413-2.56 5.973-1.707l40.107 23.893 40.107-23.893c1.707-.853 4.267-.853 5.973 1.707 0 .853.853 1.707.853 2.56 0 1.707-.853 2.56-1.707 3.413l-36.693 22.187 36.693 22.187c1.707.853 1.707 2.56 1.707 3.413s0 1.707-.853 2.56c-.853 1.707-1.706 2.56-3.413 2.56z"/>
</svg>
