<svg height="800" width="800" xmlns="http://www.w3.org/2000/svg" viewBox="0 0 503.689 503.689" xml:space="preserve">
  <path style="fill:#80d6fa" d="M46.155 445.111s8.533 17.067 34.133 17.067 34.133-17.067 34.133-17.067 8.533 17.067 34.133 17.067 34.133-17.067 34.133-17.067 8.533 17.067 34.133 17.067 34.133-17.067 34.133-17.067 8.533 17.067 34.133 17.067 34.133-17.067 34.133-17.067 8.533 17.067 34.133 17.067 34.133-17.067 34.133-17.067 7.68 16.213 31.573 17.067h2.56c25.6 0 34.133-17.067 34.133-17.067s8.533 17.067 34.133 17.067c3.413 0 5.973 0 8.533-.853v34.133c-2.56.853-5.12.853-8.533.853-25.6 0-34.133-17.067-34.133-17.067s-8.533 17.067-34.133 17.067-34.133-17.067-34.133-17.067-8.533 17.067-34.133 17.067-34.133-17.067-34.133-17.067-8.533 17.067-34.133 17.067-34.133-17.067-34.133-17.067-8.533 17.067-34.133 17.067-34.133-17.067-34.133-17.067-8.533 17.067-34.133 17.067-34.133-17.067-34.133-17.067-8.533 17.067-34.133 17.067-34.133-17.067-34.133-17.067-8.533 17.067-34.133 17.067c-3.413 0-5.973 0-8.533-.853v-34.133c2.56.853 5.12.853 8.533.853 25.6 0 34.133-17.067 34.133-17.067" transform="translate(1 3)"/>
	<path style="fill:#ffd0a1" d="M314.102 407.564c6.827 6.827 6.827 17.067 0 23.893l-8.533 8.533c-6.827 6.827-17.067 6.827-23.893 0s-6.827-17.067 0-23.893l8.533-8.533c6.826-6.826 17.066-6.826 23.893 0zm-109.227 0c6.827-6.827 17.067-6.827 23.893 0 6.827 6.827 6.827 17.067 0 23.893l-8.533 8.533c-6.827 6.827-17.067 6.827-23.893 0s-6.827-17.067 0-23.893l8.533-8.533zm-69.973 32.427c-6.827 6.827-17.067 6.827-23.893 0-6.827-6.827-6.827-17.067 0-23.893l8.533-8.533c6.827-6.827 17.067-6.827 23.893 0 6.827 6.827 6.827 17.067 0 23.893l-8.533 8.533z" transform="translate(1 3)"/>
	<path style="fill:#aab1ba" d="M285.089 291.511H71.756c-51.2-256 153.6-273.067 153.6-273.067 0 110.08 11.093 186.88 33.28 238.933 0 .853.853 1.707.853 1.707 0 .854 11.093 23.04 25.6 32.427" transform="translate(1 3)"/>
	<path style="fill:#aab1ba" d="M259.489 257.378V137.911c0-51.2 51.2-85.333 51.2-85.333s0 153.6 59.733 238.933h-85.333c-15.36-9.387-25.6-31.573-25.6-31.573 0-.853-.853-1.707-.853-1.707l.853-.853z" transform="translate(1 3)"/>
	<path style="fill:#ae938d" d="M111.009 439.991c6.827 6.827 17.067 6.827 23.893 0l8.533-8.533c6.827-6.827 6.827-17.067 0-23.893-6.827-6.827-17.067-6.827-23.893 0l-8.533 8.533c-6.827 6.826-6.827 17.066 0 23.893m3.413 5.12s-8.533 17.067-34.133 17.067-34.133-17.067-34.133-17.067c-25.6-17.067-42.667-30.72-42.667-68.267v-68.267h25.6c17.067 0 17.067 34.133 34.133 34.133h315.733c28.16 0 51.2-23.893 51.2-51.2v-34.133c0-18.773 15.36-34.133 34.133-34.133h34.133v25.6c0 8.533-17.067 8.533-17.067 17.067v76.8c0 64-29.867 82.773-62.293 98.987l-.853 20.48c-23.04-.853-31.573-17.067-31.573-17.067s-8.533 17.067-34.133 17.067-34.133-17.067-34.133-17.067-8.533 17.067-34.133 17.067-34.133-17.067-34.133-17.067-8.533 17.067-34.133 17.067-34.133-17.067-34.133-17.067-8.533 17.067-34.133 17.067c-24.749 0-33.282-17.067-33.282-17.067m81.92-5.12c6.827 6.827 17.067 6.827 23.893 0l8.533-8.533c6.827-6.827 6.827-17.067 0-23.893-6.827-6.827-17.067-6.827-23.893 0l-8.533 8.533c-6.827 6.826-6.827 17.066 0 23.893m85.333 0c6.827 6.827 17.067 6.827 23.893 0l8.533-8.533c6.827-6.827 6.827-17.067 0-23.893-6.827-6.827-17.067-6.827-23.893 0l-8.533 8.533c-6.826 6.826-6.826 17.066 0 23.893" transform="translate(1 3)"/>
	<path style="fill:#51565f" d="M490.889 503.578c-18.773 0-29.013-8.533-34.133-13.653-5.12 5.973-15.36 13.653-34.133 13.653s-29.013-8.533-34.133-13.653c-5.12 5.973-15.36 13.653-34.133 13.653s-29.013-8.533-34.133-13.653c-5.12 5.973-15.36 13.653-34.133 13.653-18.773 0-29.013-8.533-34.133-13.653-5.12 5.973-15.36 13.653-34.133 13.653s-29.013-8.533-34.133-13.653c-5.12 5.973-15.36 13.653-34.133 13.653-18.773 0-29.013-8.533-34.133-13.653-5.12 5.973-15.36 13.653-34.133 13.653s-29.013-8.533-34.133-13.653c-5.12 5.973-15.36 13.653-34.133 13.653-3.413 0-5.973 0-9.387-.853-2.56 0-4.267-2.56-3.413-5.12 0-2.56 2.56-4.267 5.12-3.413 2.56.853 5.12.853 7.68.853 22.187 0 29.867-14.507 30.72-14.507.853-1.707 1.707-2.56 3.413-2.56 1.707 0 3.413.853 3.413 2.56 0 .853 7.68 14.507 30.72 14.507s29.867-14.507 30.72-14.507c.853-1.707 2.56-2.56 3.413-2.56 1.707 0 3.413.853 3.413 2.56 0 .853 7.68 14.507 30.72 14.507s29.867-14.507 30.72-14.507c.853-1.707 2.56-2.56 3.413-2.56 1.707 0 3.413.853 3.413 2.56 0 .853 7.68 14.507 30.72 14.507s29.867-14.507 30.72-14.507c.853-1.707 1.707-2.56 3.413-2.56s3.413.853 3.413 2.56c0 .853 7.68 14.507 30.72 14.507s29.867-14.507 30.72-14.507c.853-1.707 2.56-2.56 3.413-2.56 1.707 0 3.413.853 3.413 2.56 0 .853 7.68 14.507 30.72 14.507s29.867-14.507 30.72-14.507c.853-1.707 2.56-2.56 3.413-2.56 1.707 0 3.413.853 3.413 2.56 0 .853 7.68 14.507 30.72 14.507s29.867-14.507 30.72-14.507c.853-1.707 2.56-1.707 3.413-2.56 1.707 0 3.413.853 3.413 2.56 0 .853 7.68 14.507 30.72 14.507 2.56 0 5.12 0 7.68-.853 2.56 0 4.267.853 5.12 3.413 0 2.56-.853 4.267-3.413 5.12-3.414.853-5.974.853-9.387.853zm-196.267-51.2c-5.973 0-11.093-2.56-15.36-5.973-8.533-8.533-8.533-22.187 0-29.867l8.533-8.533c6.827-6.827 18.773-7.68 26.453-2.56l28.16-28.16c1.707-1.707 4.267-1.707 5.973 0 .853.853.853 1.707.853 3.413s0 2.56-.853 3.413l-28.16 28.16c5.12 8.533 4.267 19.627-2.56 26.453l-8.533 8.533c-3.413 2.561-8.533 5.121-14.506 5.121zm8.533-42.667c-3.413 0-6.827 1.707-9.387 3.413l-8.533 8.533c-5.12 5.12-5.12 12.8 0 17.92 5.12 5.12 13.653 5.12 17.92 0l8.533-8.533c5.12-5.12 5.12-11.947.853-17.067 0 0-.853 0-.853-.853s-.853-.853-.853-.853c-1.706-1.707-4.266-2.56-7.68-2.56zm-93.866 42.667c-5.973 0-11.093-2.56-15.36-5.973-8.533-8.533-8.533-22.187 0-29.867l8.533-8.533c6.827-6.827 18.773-7.68 26.453-2.56l28.16-28.16c1.707-1.707 4.267-1.707 5.973 0 .853.853.853 1.707.853 3.413s0 2.56-.853 3.413l-28.16 28.16c5.12 8.533 4.267 19.627-2.56 26.453l-8.533 8.533c-3.413 2.561-8.533 5.121-14.506 5.121zm8.533-42.667c-3.413 0-6.827 1.707-9.387 3.413l-8.533 8.533c-5.12 5.12-5.12 12.8 0 17.92 5.12 5.12 13.653 5.12 17.92 0l8.533-8.533c5.12-5.12 5.12-11.947.853-17.067 0 0-.853 0-.853-.853s-.853-.853-.853-.853c-1.707-1.707-4.267-2.56-7.68-2.56zm-93.867 42.667c-5.973 0-11.093-2.56-15.36-5.973-8.533-8.533-8.533-22.187 0-29.867l8.533-8.533c6.827-6.827 18.773-7.68 26.453-2.56l28.16-28.16c1.707-1.707 4.267-1.707 5.973 0 .853.853.853 1.707.853 3.413s0 2.56-.853 3.413l-28.16 28.16c5.12 8.533 4.267 19.627-2.56 26.453l-8.533 8.533c-3.412 2.561-8.532 5.121-14.506 5.121zm8.534-42.667c-3.413 0-6.827 1.707-9.387 3.413l-8.533 8.533c-5.12 5.12-5.12 12.8 0 17.92 5.12 5.12 13.653 5.12 17.92 0l8.533-8.533c5.12-5.12 5.12-11.947.853-17.067 0 0-.853 0-.853-.853s-.853-.853-.853-.853c-1.707-1.707-4.267-2.56-7.68-2.56zm281.6 42.667c-1.707 0-3.413-.853-3.413-2.56-.853-1.707 0-4.267 1.707-5.973 34.133-17.067 65.707-33.28 65.707-98.987v-76.8c0-6.827 5.973-10.24 11.093-11.947 3.413-1.707 5.973-3.413 5.973-5.12v-21.333h-29.867c-16.213 0-29.867 13.653-29.867 29.867v34.133c0 29.867-25.6 55.467-55.467 55.467H64.222c-11.093 0-16.213-10.24-20.48-19.627-4.267-9.387-7.68-14.507-13.653-14.507H8.755v64c0 35.84 15.36 47.787 40.96 64.853 1.707 1.707 2.56 4.267.853 5.973-1.707 1.707-4.267 2.56-5.973.853C17.288 432.75.222 418.243.222 378.99v-68.267c0-2.56 1.707-4.267 4.267-4.267h25.6c11.093 0 16.213 10.24 20.48 19.627 4.267 9.387 7.68 14.507 13.653 14.507h315.733c25.6 0 46.933-21.333 46.933-46.933v-34.133c0-20.48 17.92-38.4 38.4-38.4h34.133c2.56 0 4.267 1.707 4.267 4.267v25.6c0 6.827-5.973 10.24-11.093 11.947-3.413 1.707-5.973 3.413-5.973 5.12v76.8c0 70.827-35.84 88.747-70.827 105.813 0 1.707-.853 1.707-1.706 1.707zM226.355 315.844c-2.56 0-4.267-1.707-4.267-4.267v-12.8H72.755c-1.707 0-3.413-1.707-4.267-3.413-17.067-87.04-7.68-157.013 29.867-206.507 42.667-57.173 106.667-69.12 123.733-70.827V4.378c0-2.56 1.707-4.267 4.267-4.267 2.56 0 4.267 1.707 4.267 4.267v17.067c0 108.373 11.093 186.88 34.133 239.787.853 2.56 0 4.267-2.56 5.973-2.56.853-4.267 0-5.973-2.56-23.04-52.907-34.133-130.56-34.133-238.08-17.067 2.56-77.653 15.36-116.907 67.413-34.987 46.933-45.227 112.64-29.013 196.267h287.573c-48.64-75.093-54.613-193.707-55.467-226.133-13.653 11.093-42.667 39.253-42.667 76.8 0 2.56-1.707 4.267-4.267 4.267s-4.267-1.707-4.267-4.267c0-52.907 51.2-87.04 52.907-88.747 1.707-.853 3.413-.853 4.267 0 1.707.853 2.56 2.56 2.56 3.413 0 1.707.853 153.6 58.88 236.373.853 1.707.853 3.413 0 4.267-.853 1.707-2.56 2.56-3.413 2.56h-140.8v12.8c-.853 2.56-2.56 4.266-5.12 4.266zm-34.133-102.4c-.853 0-1.707 0-2.56-.853l-40.107-23.893-40.107 23.893c-1.707.853-4.267.853-5.973-1.707 0-.853-.853-1.707-.853-2.56 0-1.707.853-2.56 1.707-3.413l36.693-22.187-36.693-22.187c-1.707-.853-1.707-2.56-1.707-3.413 0-.853 0-1.707.853-2.56.853-1.707 3.413-2.56 5.973-1.707l40.107 23.893 40.107-23.893c1.707-.853 4.267-.853 5.973 1.707 0 .853.853 1.707.853 2.56 0 1.707-.853 2.56-1.707 3.413l-36.693 22.187 36.693 22.187c1.707.853 1.707 2.56 1.707 3.413 0 .853 0 1.707-.853 2.56-.853 1.707-1.706 2.56-3.413 2.56z"/>
</svg>
