<svg height="800" width="800" xmlns="http://www.w3.org/2000/svg" viewBox="0 0 503.466 503.466" xml:space="preserve">
  <path style="fill:#e4f2de" d="M166.253 132.547c-12.8 9.387-24.747 20.48-34.133 34.133l-.853-.853-66.56-66.56c-5.973 8.533-16.213 14.507-28.16 14.507-18.773 0-34.133-15.36-34.133-34.133s15.36-34.133 34.133-34.133c3.413 0 6.827.853 10.24 1.707-.853-3.413-1.707-6.827-1.707-10.24C45.08 18.2 60.44 2.84 79.214 2.84s34.133 15.36 34.133 34.133c0 11.947-5.973 22.187-14.507 28.16l65.707 65.707 1.706 1.707zm203.094 33.28c-9.387-12.8-20.48-24.747-34.133-34.133l.853-.853 66.56-66.56c-8.533-5.973-14.507-16.213-14.507-28.16 0-18.773 15.36-34.133 34.133-34.133 18.773 0 34.133 15.36 34.133 34.133 0 3.413-.853 6.827-1.707 10.24 3.413-.853 6.827-1.707 10.24-1.707 18.773 0 34.133 15.36 34.133 34.133s-15.36 34.133-34.133 34.133c-11.947 0-22.187-5.973-28.16-14.507l-67.412 67.414zm-33.28 178.346H370.2l.853-5.973h1.707l63.147 63.147c5.973-8.533 16.213-14.507 28.16-14.507 18.773 0 34.133 15.36 34.133 34.133s-15.36 34.133-34.133 34.133c-3.413 0-6.827-.853-10.24-1.707.853 3.413 1.707 6.827 1.707 10.24 0 18.773-15.36 34.133-34.133 34.133s-34.133-15.36-34.133-34.133c0-11.947 5.973-22.187 14.507-28.16l-79.36-79.36h-1.707c1.705-5.119 5.972-11.946 15.359-11.946zm-170.667 0c9.387 0 13.653 6.827 15.36 11.947l-2.56.853-78.507 78.507c8.533 5.973 14.507 16.213 14.507 28.16 0 18.773-15.36 34.133-34.133 34.133s-34.133-15.36-34.133-34.133c0-3.413.853-6.827 1.707-10.24-3.413.853-6.827 1.707-10.24 1.707-18.773 0-34.133-15.36-34.133-34.133S18.627 386.84 37.4 386.84c11.947 0 22.187 5.973 28.16 14.507l63.147-63.147h1.707l.853 5.973H165.4z" transform="translate(1 1)"/>
	<path style="fill:#e4f2de" d="M276.333 412.44H191l-8.533-51.2s0-2.56-1.707-5.12c-1.707-5.12-5.973-11.947-15.36-11.947h-34.133l-.853-5.973-7.68-45.227c-8.533-8.533-17.067-21.333-17.067-42.667 0-31.573 10.24-60.587 27.307-84.48 9.387-12.8 20.48-24.747 34.133-34.133 23.893-17.067 52.907-27.307 84.48-27.307s60.587 10.24 84.48 27.307c12.8 9.387 24.747 20.48 34.133 34.133 17.067 23.893 26.453 52.907 26.453 84.48 0 21.333-8.533 34.133-17.067 42.667l-7.68 45.227-.853 5.973H336.92c-9.387 0-13.653 6.827-15.36 11.947-.853 3.413-1.707 5.12-1.707 5.12l-8.533 51.2h-34.987z" transform="translate(1 1)"/>
	<path style="fill:#aab1ba" d="M199.533 224.707c14.507 0 25.6 11.093 25.6 25.6 0 14.507-11.093 25.6-25.6 25.6s-25.6-11.093-25.6-25.6c0-14.507 11.094-25.6 25.6-25.6zm68.267 102.4h-34.133s0-25.6 17.067-25.6 17.066 25.6 17.066 25.6zm34.133-102.4c14.507 0 25.6 11.093 25.6 25.6 0 14.507-11.093 25.6-25.6 25.6s-25.6-11.093-25.6-25.6c0-14.507 11.094-25.6 25.6-25.6z" transform="translate(1 1)"/>
	<path style="fill:#51565f" d="M422.4 503.04c-21.333 0-38.4-17.067-38.4-38.4 0-11.093 4.267-21.333 12.8-28.16l-53.76-53.76c-1.707-1.707-1.707-4.267 0-5.973 1.707-1.707 4.267-1.707 5.973 0l57.173 57.173c.853.853 1.707 2.56.853 3.413-.853.853-.853 2.56-1.707 3.413-7.68 5.973-12.8 14.507-12.8 24.747 0 16.213 13.653 29.867 29.867 29.867s29.867-13.653 29.867-29.867c0-2.56-.853-5.973-1.707-9.387-.853-1.707 0-3.413.853-4.267.853-.853 2.56-1.707 4.267-.853 3.413.853 5.973 1.707 9.387 1.707 16.213 0 29.867-13.653 29.867-29.867 0-16.213-13.653-29.867-29.867-29.867-9.387 0-18.773 5.12-24.747 12.8-.853.853-1.707 1.707-3.413 1.707-.853 0-2.56 0-3.413-.853l-40.107-40.107c-1.707-1.707-1.707-4.267 0-5.973 1.707-1.707 4.267-1.707 5.973 0l36.693 36.693c6.827-7.68 17.92-12.8 28.16-12.8 21.333 0 38.4 17.067 38.4 38.4s-17.067 38.4-38.4 38.4h-4.267v4.267c.855 20.48-16.212 37.547-37.545 37.547zm-341.333 0c-21.333 0-38.4-17.067-38.4-38.4v-4.267H38.4c-21.333 0-38.4-17.067-38.4-38.4s17.067-38.4 38.4-38.4c11.093 0 21.333 4.267 28.16 12.8l36.693-36.693c1.707-1.707 4.267-1.707 5.973 0 1.707 1.707 1.707 4.267 0 5.973L69.12 405.76c-.853.853-1.707 1.707-3.413.853-.853 0-2.56-.853-3.413-1.707-5.973-7.68-14.507-12.8-24.747-12.8-16.213 0-29.867 13.653-29.867 29.867s13.653 29.867 29.867 29.867c2.56 0 5.973-.853 9.387-1.707 1.707-.853 3.413 0 4.267.853.853.853 1.707 2.56.853 4.267-.853 3.413-1.707 5.973-1.707 9.387 0 16.213 13.653 29.867 29.867 29.867s29.867-13.653 29.867-29.867c0-9.387-5.12-18.773-12.8-24.747-.853-.853-1.707-1.707-1.707-3.413s0-2.56.853-3.413l57.173-57.173c1.707-1.707 4.267-1.707 5.973 0 1.707 1.707 1.707 4.267 0 5.973l-53.76 53.76c7.68 6.827 12.8 17.92 12.8 28.16.854 22.186-16.213 39.253-37.546 39.253zm230.4-85.333s-.854 0 0 0c-3.413-.853-4.267-2.56-4.267-5.12l8.533-51.2c.853-6.827 6.827-20.48 21.333-20.48h30.72l7.68-47.787c0-.853.853-1.707.853-2.56 11.093-11.093 16.213-23.04 16.213-39.253 0-77.653-63.147-140.8-140.8-140.8s-140.8 63.147-140.8 140.8c0 16.213 5.12 29.013 16.213 39.253.853.853.853 1.707.853 2.56l7.68 47.787h30.72c15.36 0 20.48 13.653 21.333 20.48l7.68 47.787h26.453v-29.867c0-2.56 1.707-4.267 4.267-4.267s4.267 1.707 4.267 4.267v29.867h42.667v-29.867c0-2.56 1.707-4.267 4.267-4.267s4.267 1.707 4.267 4.267v34.133c0 2.56-1.707 4.267-4.267 4.267H192c-1.707 0-4.267-1.707-4.267-3.413l-8.533-51.2c0-1.707-1.707-13.653-12.8-13.653h-34.133c-1.707 0-4.267-1.707-4.267-3.413l-8.533-49.493c-11.093-11.947-17.067-27.307-17.067-44.373 0-81.92 67.413-149.333 149.333-149.333S401.067 170.24 401.067 252.16c0 17.92-5.973 32.427-17.067 44.373l-8.533 49.493c0 1.707-1.707 3.413-4.267 3.413h-34.133c-10.24 0-12.8 12.8-12.8 13.653l-8.533 51.2c-.001 1.708-2.561 3.415-4.267 3.415zM268.8 332.373h-34.133c-2.56 0-4.267-1.707-4.267-4.267 0-10.24 4.267-29.867 21.333-29.867s21.333 19.627 21.333 29.867c.001 2.56-1.706 4.267-4.266 4.267zm-29.867-8.533h24.747c-.853-5.973-3.413-17.067-12.8-17.067s-11.093 11.093-11.947 17.067zm64-42.667c-16.213 0-29.867-13.653-29.867-29.867s13.653-29.867 29.867-29.867 29.867 13.653 29.867 29.867-13.653 29.867-29.867 29.867zm0-51.2c-11.947 0-21.333 9.387-21.333 21.333 0 11.947 9.387 21.333 21.333 21.333s21.333-9.387 21.333-21.333c.001-11.946-9.386-21.333-21.333-21.333zm-102.4 51.2c-16.213 0-29.867-13.653-29.867-29.867s13.653-29.867 29.867-29.867 29.867 13.653 29.867 29.867-13.653 29.867-29.867 29.867zm0-51.2c-11.947 0-21.333 9.387-21.333 21.333 0 11.947 9.387 21.333 21.333 21.333 11.947 0 21.333-9.387 21.333-21.333.001-11.946-9.386-21.333-21.333-21.333zm-89.6-81.066c-.853 0-2.56 0-3.413-.853l-40.96-40.96c-6.827 7.68-17.92 12.8-28.16 12.8-21.333 0-38.4-17.067-38.4-38.4s17.067-38.4 38.4-38.4h4.267v-4.267c0-21.333 17.067-38.4 38.4-38.4s38.4 17.067 38.4 38.4c0 11.093-4.267 21.333-12.8 28.16l40.96 40.96c1.707 1.707 1.707 4.267 0 5.973s-4.267 1.707-5.973 0L97.28 69.546c-.853-.853-1.707-2.56-.853-3.413s.853-2.56 1.707-3.413c7.68-5.973 12.8-14.507 12.8-24.747 0-16.213-13.653-29.867-29.867-29.867S51.2 21.76 51.2 37.973c0 2.56.853 5.973 1.707 9.387.853 1.707 0 3.413-.853 4.267-.853.853-2.56 1.707-4.267.853-3.413-.853-5.973-1.707-9.387-1.707-16.213 0-29.867 13.653-29.867 29.867s13.653 29.867 29.867 29.867c9.387 0 18.773-5.12 24.747-12.8C64 96.853 64.853 96 66.56 96c.853 0 2.56 0 3.413.853l44.373 44.373c1.707 1.707 1.707 4.267 0 5.973-.853 1.708-2.559 1.708-3.413 1.708zm281.6 0c-.853 0-2.56 0-3.413-.853-1.707-1.707-1.707-4.267 0-5.973l44.373-44.373c.853-.853 2.56-1.707 3.413-.853.853 0 2.56.853 3.413 1.707 5.973 7.68 14.507 12.8 24.747 12.8 16.213 0 29.867-13.653 29.867-29.867s-13.653-29.867-29.867-29.867c-2.56 0-5.973.853-9.387 1.707-1.707.853-3.413 0-4.267-.853s-1.707-2.56-.853-4.267c.853-3.413 1.707-5.973 1.707-9.387 0-16.213-13.653-29.867-29.867-29.867-16.213 0-29.867 13.653-29.867 29.867 0 9.387 5.12 18.773 12.8 24.747.853.853 1.707 1.707 1.707 3.413 0 1.707 0 2.56-.853 3.413l-44.373 44.373c-1.707 1.707-4.267 1.707-5.973 0-1.707-1.707-1.707-4.267 0-5.973l40.96-40.96c-7.68-6.827-12.8-17.92-12.8-28.16 0-21.333 17.067-38.4 38.4-38.4s38.4 17.067 38.4 38.4v4.267h4.267c21.333 0 38.4 17.067 38.4 38.4s-17.067 38.4-38.4 38.4c-11.093 0-21.333-4.267-28.16-12.8l-40.96 40.96-3.414-.001z"/>
</svg>
