<svg height="800" width="800" xmlns="http://www.w3.org/2000/svg" viewBox="0 0 502.967 502.967" xml:space="preserve">
  <path style="fill:#ae938d" d="m165.407 312.526 35.84 35.84c-29.867 41.813-60.587 72.533-93.013 84.48 1.707 11.093-.853 22.187-9.387 30.72-13.653 13.653-34.987 13.653-47.787 0-13.653-13.653-13.653-34.987 0-48.64 8.533-8.533 19.627-11.093 29.867-9.387 11.947-32.426 48.64-69.119 84.48-93.013" transform="translate(6 1)"/>
	<path style="fill:#e4f2de" d="M382.154 2.767s130.56 107.52 30.72 207.36c-96.427 96.427-174.933 127.147-174.933 127.147l-36.693 11.947-35.84-35.84 66.56-66.56c23.893-23.893 72.533-72.533 84.48-132.267C374.474 54.82 382.154 2.767 382.154 2.767" transform="translate(6 1)"/>
	<path style="fill:#51565f" d="M159.461 502.967c-13.653 0-27.307-5.973-39.253-17.067-1.707-1.707-1.707-4.267 0-5.973 1.707-1.707 4.267-1.707 5.973 0 19.627 19.627 46.933 19.627 66.56 0l35.84-35.84c9.387-9.387 14.507-21.333 14.507-33.28s-5.12-23.893-14.507-33.28l-20.48-20.48c-31.573 43.52-59.733 69.12-88.747 80.213.853 11.093-3.413 22.187-11.093 30.72-15.36 15.36-39.253 15.36-54.613 0s-15.36-39.253 0-54.613c7.68-7.68 19.627-11.947 30.72-11.093 11.947-29.013 42.667-63.147 80.213-88.747L132.155 281.1c-1.707-1.707-1.707-4.267 0-5.973 1.707-1.707 4.267-1.707 5.973 0l33.28 33.28 63.147-63.147c23.04-23.04 71.68-71.68 83.627-130.56 0-.853.853-1.707.853-2.56 56.32-56.32 64-107.52 64.853-108.373 0-1.707.853-2.56 2.56-3.413s3.413 0 4.267.853c2.56 2.56 66.56 55.467 69.973 122.88 1.707 32.427-11.093 63.147-38.4 90.453-96.427 96.427-175.787 127.147-176.64 128-2.56.853-4.267 0-5.12-2.56-.853-2.56 0-4.267 2.56-5.12.853 0 78.507-30.72 173.227-125.44 25.6-25.6 37.547-53.76 36.693-84.48-2.56-52.907-46.08-98.133-61.44-111.787-4.267 17.067-18.773 58.88-64.853 104.96-12.8 61.44-61.44 110.08-85.333 133.973l-63.147 63.147 57.173 57.173c22.187 22.187 22.187 56.32 0 78.507l-35.84 35.84c-12.801 10.24-26.454 16.214-40.107 16.214zm-78.507-92.16c-7.68 0-15.36 3.413-21.333 8.533-11.947 11.947-11.947 30.72 0 42.667 11.947 11.947 30.72 11.947 42.667 0 6.827-6.827 10.24-17.067 8.533-26.453 0-1.707.853-4.267 2.56-5.12 29.013-10.24 57.173-35.84 88.747-80.213l-31.573-31.573c-38.4 26.453-69.973 61.44-79.36 88.747-.853 1.707-2.56 3.413-5.12 2.56-1.708.852-3.414.852-5.121.852zm186.88-140.8c-.853 0-2.56 0-3.413-.853-1.707-1.707-1.707-4.267 0-5.973.853-.853 77.653-77.653 83.627-130.56 0-.853.853-1.707.853-2.56 17.92-17.92 35.84-35.84 46.933-70.827.853-2.56 3.413-3.413 5.12-2.56 2.56.853 3.413 3.413 2.56 5.12-11.947 36.693-30.72 55.467-48.64 73.387-7.68 55.467-81.92 130.56-85.333 133.973.853-.001-.854.853-1.707.853z"/>
</svg>
