<svg height="800" width="800" xmlns="http://www.w3.org/2000/svg" viewBox="0 0 503.467 503.467" xml:space="preserve">
  <path style="fill:#e4f2de" d="M301.933 276.227c-9.387 8.533-31.573 27.307-58.88 51.2h-.853V251.48l59.733 24.747zM322.413 239.533l-97.28-40.107c2.56-3.413 4.267-4.267 4.267-4.267 21.333-21.333 56.32-21.333 77.653 0 11.947 11.947 17.067 29.014 15.36 44.374" transform="translate(1 1)"/>
	<path style="fill:#ae938d" d="M242.2 328.28S69.827 480.173 61.293 487.853c-13.653 13.653-34.987 13.653-48.64 0C-1 474.2-1 452.867 12.653 439.213c7.68-7.68 98.133-110.933 159.573-180.907L242.2 328.28z" transform="translate(1 1)"/>
	<path style="fill:#e4f2de" d="m242.2 251.48-46.08-18.773c12.8-15.36 23.04-26.453 29.013-32.427l97.28 40.107c-1.707 11.947-6.827 23.04-15.36 32.427l-4.267 4.267L242.2 251.48z" transform="translate(1 1)"/>
	<path style="fill:#e4f2de" d="m196.12 231.853 46.08 18.773v76.8c-14.507-6.827-62.293-54.613-69.12-69.12 8.533-8.533 16.213-17.92 23.04-26.453z" transform="translate(1 1)"/>
	<path style="fill:#ff7474" d="M196.12 231.853c-6.827 7.68-15.36 17.067-23.893 26.453-11.093-17.92-14.507-40.107-14.507-40.107l.853-2.56c-7.68-46.933 6.827-97.28 42.667-133.973 64-64 176.64-36.693 261.973-79.36 17.067 85.333-51.2 128-51.2 128s25.6 25.6 68.267 8.533c0 34.133-5.12 102.4-62.293 159.573-38.4 38.4-93.013 52.053-142.507 40.96 0 0-16.213-4.267-33.28-12.8 27.307-23.893 49.493-43.52 58.88-51.2l4.267-4.267c9.387-9.387 14.507-20.48 15.36-32.427 1.707-16.213-3.413-32.427-15.36-45.227-21.333-21.333-56.32-21.333-77.653 0l-4.267 4.267c-3.414 7.682-13.654 19.629-27.307 34.135" transform="translate(1 1)"/>
	<path style="fill:#e4f2de" d="M156.867 20.227c9.387 0 17.067 7.68 17.067 17.067s-7.68 17.067-17.067 17.067S139.8 46.68 139.8 37.293s7.68-17.066 17.067-17.066" transform="translate(1 1)"/>
	<path style="fill:#51565f" d="M38.4 503.36c-10.24 0-19.627-4.267-27.307-11.093C3.413 485.44 0 475.2 0 464.96c0-10.24 4.267-19.627 11.093-27.307 11.947-11.947 213.333-242.347 215.893-244.907 23.04-23.04 60.587-23.04 83.627 0 12.8 12.8 18.773 30.72 17.067 47.787v.853c-1.707 12.8-6.827 24.747-17.067 34.133-2.56 2.56-232.96 203.947-244.907 215.893-7.679 7.681-17.066 11.948-27.306 11.948zm135.68-237.227C112.64 336.107 25.6 435.947 17.067 443.627c-5.973 5.973-8.533 12.8-8.533 21.333 0 7.68 3.413 15.36 8.533 21.333 11.093 11.093 30.72 11.093 42.667 0 7.68-7.68 107.52-95.573 177.493-157.013l-63.147-63.147zm73.387-7.68v61.44c20.48-17.92 37.547-32.427 47.787-41.813l-47.787-19.627zm-67.414 1.707 58.88 59.733v-64l-40.107-17.067c-5.973 5.974-12.799 13.654-18.773 21.334zM204.8 232l97.28 40.96 2.56-2.56c7.68-7.68 11.947-17.067 13.653-26.453l-91.307-38.4c-5.119 5.973-12.799 14.506-22.186 26.453zm28.16-33.28 86.187 35.84c0-12.8-5.12-25.6-14.507-35.84-19.627-19.627-52.053-19.627-71.68 0zm78.507 151.04c-11.947 0-23.893-1.707-34.987-4.267-2.56-.853-3.413-2.56-3.413-5.12.853-2.56 2.56-3.413 5.12-3.413 50.347 11.093 102.4-3.413 139.093-40.107 39.253-39.253 59.733-89.6 60.587-151.04-40.96 13.653-65.707-10.24-66.56-11.947-.853-.853-1.707-2.56-.853-3.413 0-1.707.853-2.56 1.707-3.413 2.56-1.707 63.147-40.107 50.347-117.76-35.84 17.067-76.8 22.187-115.2 27.307-53.76 6.827-104.96 13.653-140.8 48.64-34.133 34.133-49.493 82.773-41.813 130.56 0 2.56-.853 4.267-3.413 5.12-2.56 0-4.267-.853-5.12-3.413-8.533-50.347 7.68-101.547 44.373-137.387 37.547-37.547 89.6-44.373 145.067-51.2 40.107-5.12 81.92-10.24 117.76-28.16.853-.853 2.56-.853 3.413 0 .853.853 1.707 1.707 2.56 3.413 14.507 73.387-32.427 116.907-48.64 128.853 8.533 5.973 29.013 16.213 59.733 4.267 1.707-.853 2.56 0 4.267.853.853.853 1.707 1.707 1.707 3.413 0 65.707-21.333 121.173-63.147 162.987-29.868 29.014-69.975 45.227-111.788 45.227zm0-34.133c-2.56 0-4.267-1.707-4.267-4.267 0-2.56 1.707-4.267 4.267-4.267 30.72 0 59.733-11.947 81.067-34.133 1.707-1.707 4.267-1.707 5.973 0 1.707 1.707 1.707 4.267 0 5.973-23.04 23.894-53.76 36.694-87.04 36.694zm183.466-8.534c-5.12 0-8.533-3.413-8.533-8.533s3.413-8.533 8.533-8.533 8.533 3.413 8.533 8.533-3.413 8.533-8.533 8.533zM192 196.16c-2.56 0-4.267-1.707-4.267-4.267 0-33.28 12.8-64 35.84-87.893 1.707-1.707 4.267-1.707 5.973 0 1.707 1.707 1.707 4.267 0 5.973-22.187 21.333-34.133 50.347-34.133 81.067.854 3.413-.853 5.12-3.413 5.12zm-81.067 0c-5.12 0-8.533-3.413-8.533-8.533s3.413-8.533 8.533-8.533c5.12 0 8.533 3.413 8.533 8.533s-3.413 8.533-8.533 8.533zm46.934-136.533c-11.947 0-21.333-9.387-21.333-21.333s9.387-21.333 21.333-21.333c11.947 0 21.333 9.387 21.333 21.333s-9.387 21.333-21.333 21.333zm0-34.134c-6.827 0-12.8 5.973-12.8 12.8s5.973 12.8 12.8 12.8c6.827 0 12.8-5.973 12.8-12.8s-5.974-12.8-12.8-12.8z"/>
</svg>
