<svg height="800" width="800" xmlns="http://www.w3.org/2000/svg" viewBox="0 0 504.32 504.32" xml:space="preserve">
  <path style="fill:#ffe079" d="m328.387 127.96 17.067 29.867-73.387 42.667h-.853l-17.067-29.867 74.24-42.667zm17.066 106.667v34.133h-102.4v-34.133h17.067v-34.133h102.399v34.133h-17.066zm42.667 0v-34.133h-8.533v-68.267h17.067V98.093H362.52V63.96h8.533V29.827h102.4V63.96h-8.533v34.133h34.133v34.133h-17.067v68.267h8.533v34.133h-8.533v34.133h-102.4v-34.133h8.534z" transform="translate(1 9)"/>
	<path style="fill:#ffd0a1" d="M208.92 140.76v17.067c0 4.267-3.413 8.533-8.533 8.533H12.654c-4.267 0-8.533-4.267-8.533-8.533V140.76c0-4.267 4.267-8.533 8.533-8.533h187.733c5.12 0 8.533 4.266 8.533 8.533zm-42.667 315.733H46.787c34.133-14.507 43.52-49.493 44.373-76.8 0 0 0-17.067-2.56-35.84 5.12.853 11.093 1.707 17.067 1.707 5.973 0 11.947-.853 17.067-1.707.853 0-16.214 87.04 43.519 112.64z" transform="translate(1 9)"/>
	<path style="fill:#ffe079" d="M191.853 166.36v93.867c0 40.96-29.013 75.947-68.267 83.627-5.12.853-11.093 1.707-17.067 1.707s-11.947-.853-17.067-1.707c-38.4-7.68-68.267-42.667-68.267-83.627V166.36h170.668z" transform="translate(1 9)"/>
	<path style="fill:#ff7474" d="m106.52 209.027 17.067 25.6-17.067 25.6-17.067-25.6z" transform="translate(1 9)"/>
	<path style="fill:#e4f2de" d="M225.987 337.027h-8.533c-5.12 0-8.533-4.267-8.533-8.533v-17.067c0-4.267 3.413-8.533 8.533-8.533H490.52c5.12 0 8.533 4.267 8.533 8.533v17.067c0 4.267-3.413 8.533-8.533 8.533h-8.533v85.333h8.533c5.12 0 8.533 4.267 8.533 8.533v17.067c0 4.267-3.413 8.533-8.533 8.533H217.453c-5.12 0-8.533-4.267-8.533-8.533v-17.067c0-4.267 3.413-8.533 8.533-8.533h8.533v-85.333z" transform="translate(1 9)"/>
	<path style="fill:#51565f" d="M491.52 469.76H218.453c-6.827 0-12.8-5.973-12.8-12.8v-17.067c0-6.827 5.973-12.8 12.8-12.8h4.267V380.16c0-2.56 1.707-4.267 4.267-4.267 2.56 0 4.267 1.707 4.267 4.267v51.2c0 2.56-1.707 4.267-4.267 4.267h-8.533c-2.56 0-4.267 1.707-4.267 4.267v17.067c0 2.56 1.707 4.267 4.267 4.267H491.52c2.56 0 4.267-1.707 4.267-4.267v-17.067c0-2.56-1.707-4.267-4.267-4.267h-230.4c-2.56 0-4.267-1.707-4.267-4.267s1.707-4.267 4.267-4.267h230.4c6.827 0 12.8 5.973 12.8 12.8v17.067c0 6.827-5.973 12.8-12.8 12.8zm-324.267 0H47.787c-1.707 0-3.413-1.707-4.267-3.413s.853-4.267 2.56-5.12c32.427-13.653 40.96-47.787 41.813-73.387 0-2.56 1.707-4.267 4.267-4.267 2.56 0 4.267 1.707 4.267 4.267-.853 23.893-8.533 54.613-33.28 72.533h87.04c-37.547-28.16-34.133-84.48-31.573-103.253-4.267.853-7.68.853-11.947.853-49.493 0-89.6-40.107-89.6-89.6V208.64c0-2.56 1.707-4.267 4.267-4.267s4.267 1.707 4.267 4.267v59.733c0 44.373 36.693 81.067 81.067 81.067s81.067-36.693 81.067-81.067v-93.867c0-2.56 1.707-4.267 4.267-4.267h8.533c2.56 0 4.267-1.707 4.267-4.267v-17.067c0-2.56-1.707-4.267-4.267-4.267H12.8c-2.56 0-4.267 1.707-4.267 4.267v17.067c0 2.56 1.707 4.267 4.267 4.267h145.067c2.56 0 4.267 1.707 4.267 4.267 0 2.56-1.707 4.267-4.267 4.267H12.8c-6.827 0-12.8-5.973-12.8-12.8v-17.067c0-6.827 5.973-12.8 12.8-12.8h187.733c6.827 0 12.8 5.973 12.8 12.8v17.067c0 6.827-5.973 12.8-12.8 12.8h-4.267v90.453c0 42.667-29.013 77.653-69.12 87.04-2.56 14.507-9.387 83.627 40.96 104.96 1.707.853 2.56 2.56 2.56 5.12s-1.706 3.414-3.413 3.414zm315.734-57.173c-2.56 0-4.267-1.707-4.267-4.267v-62.293c0-2.56 1.707-4.267 4.267-4.267h8.533c2.56 0 4.267-1.707 4.267-4.267v-17.067c0-2.56-1.707-4.267-4.267-4.267H218.453c-2.56 0-4.267 1.707-4.267 4.267v17.067c0 2.56 1.707 4.267 4.267 4.267h230.4c2.56 0 4.267 1.707 4.267 4.267 0 2.56-1.707 4.267-4.267 4.267h-230.4c-6.827 0-12.8-5.973-12.8-12.8v-17.067c0-6.827 5.973-12.8 12.8-12.8H491.52c6.827 0 12.8 5.973 12.8 12.8v17.067c0 6.827-5.973 12.8-12.8 12.8h-4.267v58.027c0 1.706-1.706 4.266-4.266 4.266zm0-130.56h-102.4c-2.56 0-4.267-1.707-4.267-4.267v-34.133c0-2.56 1.707-4.267 4.267-4.267h4.267v-25.6h-4.267c-2.56 0-4.267-1.707-4.267-4.267v-68.267c0-2.56 1.707-4.267 4.267-4.267h12.8v-25.6H363.52c-2.56 0-4.267-1.707-4.267-4.267V72.96c0-2.56 1.707-4.267 4.267-4.267h4.267V38.827c0-2.56 1.707-4.267 4.267-4.267h102.4c2.56 0 4.267 1.707 4.267 4.267V72.96c0 2.56-1.707 4.267-4.267 4.267s-4.267-1.707-4.267-4.267V43.093H376.32v25.6h64c2.56 0 4.267 1.707 4.267 4.267s-1.707 4.267-4.267 4.267h-72.533v25.6h29.867c2.56 0 4.267 1.707 4.267 4.267v29.867h46.933c2.56 0 4.267 1.707 4.267 4.267s-1.707 4.267-4.267 4.267h-64v25.6h64c2.56 0 4.267 1.707 4.267 4.267 0 2.56-1.707 4.267-4.267 4.267h-64v25.6h64c2.56 0 4.267 1.707 4.267 4.267 0 2.56-1.707 4.267-4.267 4.267h-55.467v25.6h55.467c2.56 0 4.267 1.707 4.267 4.267 0 2.56-1.707 4.267-4.267 4.267h-64v25.6h93.867V243.63c0-2.56 1.707-4.267 4.267-4.267h4.267v-25.6h-4.267c-2.56 0-4.267-1.707-4.267-4.267v-68.267c0-2.56 1.707-4.267 4.267-4.267h12.8v-25.6h-64c-2.56 0-4.267-1.707-4.267-4.267 0-2.56 1.707-4.267 4.267-4.267h68.267c2.56 0 4.267 1.707 4.267 4.267v34.133c0 2.56-1.707 4.267-4.267 4.267h-12.8v59.733h4.267c2.56 0 4.267 1.707 4.267 4.267v34.133c0 2.56-1.707 4.267-4.267 4.267h-4.267v29.867c-.002 2.558-1.708 4.265-4.268 4.265zm-136.534 0h-102.4c-2.56 0-4.267-1.707-4.267-4.267v-34.133c0-2.56 1.707-4.267 4.267-4.267h12.8v-29.867c0-2.56 1.707-4.267 4.267-4.267h4.267l-13.653-23.04c-.853-.853-.853-2.56 0-3.413.853-.853.853-1.707 1.707-2.56l74.24-42.667c1.707-.853 4.267-.853 5.973 1.707l17.067 29.867c.853.853.853 2.56.853 3.413 0 .853-.853 1.707-1.707 2.56l-25.6 14.507c-1.707.853-4.267.853-5.973-1.707-.853-1.707-.853-4.267 1.707-5.973l22.187-12.8-12.8-22.187-66.56 38.4 13.653 23.893h71.68c2.56 0 4.267 1.707 4.267 4.267 0 2.56-1.707 4.267-4.267 4.267h-81.067v29.867c0 2.56-1.707 4.267-4.267 4.267h-12.8v25.6h93.867v-25.6H296.96c-2.56 0-4.267-1.707-4.267-4.267 0-2.56 1.707-4.267 4.267-4.267h51.2c2.56 0 4.267 1.707 4.267 4.267v34.133c-1.707 2.56-3.414 4.267-5.974 4.267zm-238.933-8.534c-1.707 0-2.56-.853-3.413-1.707l-16.213-23.893h-23.04c-2.56 0-4.267-1.707-4.267-4.267 0-2.56 1.707-4.267 4.267-4.267h23.04l16.213-23.893c1.707-2.56 5.12-2.56 6.827 0l16.213 23.893h23.04c2.56 0 4.267 1.707 4.267 4.267 0 2.56-1.707 4.267-4.267 4.267h-23.04l-16.213 23.893c-.854.854-1.707 1.707-3.414 1.707zm-11.947-29.866 11.947 17.92 11.947-17.92-11.947-17.92-11.947 17.92z"/>
</svg>
